<svg preserveAspectRatio="none" width="100%" height="100%" overflow="visible" style="display: block;" viewBox="0 0 550 799" fill="none" xmlns="http://www.w3.org/2000/svg">
<g id="image 17 [Vectorized]">
<path id="Vector" d="M40.6438 494.611C42.5197 499.952 43.1489 506.28 46.0054 512.09C46.1013 514.52 51.8244 518.324 52.0288 519.303C54.3135 530.243 60.4817 540.199 62.5366 551.064C63.2648 554.919 63.078 560.104 63.2184 563.767C63.5624 572.085 62.9773 587.409 58.3218 594.861C51.4137 605.914 52.555 604.669 52.5706 617.984L52.5835 641.33L52.564 687.682C52.5683 693.687 52.5956 711.793 53.6597 717.079C54.9949 717.563 57.5749 718.706 58.1877 720.029C57.0908 721.008 54.9169 720.902 52.9728 721.648C52.3296 722.955 52.3635 722.404 52.7512 723.665C55.9643 727.031 64.4963 727.429 68.9957 728.151C79.1497 729.782 78.1281 714.539 68.7956 715.398C67.3758 715.526 66.4626 716.404 64.9488 716.482L65.207 716.026C70.6255 712.331 73.9309 715 77.8979 718.901C81.1862 737.456 59.6968 729.236 50.2205 727.367C47.3062 726.794 42.2404 726.52 39.1857 727.031C37.0083 727.394 34.6724 729.743 32.2136 729.216C31.9657 723.208 49.2539 724.819 51.5627 721.62C50.4588 718.846 42.1491 718.308 39.2922 717.68C44.4416 717.497 46.5936 717.344 51.549 716.467C51.3169 706.897 51.9251 698.778 50.6523 689.184C45.7405 693.07 40.8599 698.239 35.8474 689.383C33.1154 684.557 33.5614 678.093 35.2032 672.892C39.3504 668.671 42.6152 669.272 46.0408 673.801C46.3225 676.474 46.8112 679.915 44.3382 681.721C40.2409 681.83 40.1087 675.916 39.8957 673.009C32.0996 679.482 35.5445 686.851 43.0088 691.474C44.149 690.515 45.8602 689.208 46.7176 688.139C55.0121 677.586 50.1206 664.809 39.0235 658.691C25.4636 651.212 23.6015 624.32 32.5612 612.807C35.8036 608.637 40.1219 608.325 44.9572 607.88C54.8592 595.516 50.9557 584.955 50.3675 570.181C50.0699 562.702 47.0574 551.259 39.5836 547.869C37.2558 546.792 34.5941 546.695 32.1941 547.6C21.5923 551.685 19.3602 571.063 29.5119 577.609C31.2385 578.725 34.4828 577.691 35.9961 576.404C38.478 574.289 40.1777 571.882 37.2222 569.17C34.5544 566.521 30.7619 557.72 38.1594 558.122C38.641 558.145 39.845 560.01 40.0123 560.712C40.9972 564.817 42.0329 572.846 39.6254 576.727C31.8928 589.204 23.9497 579.154 21.8175 570.169C20.0658 563.018 21.3178 555.461 25.2822 549.258C28.0881 544.779 30.4339 543.464 35.3352 542.388C40.2534 543.917 44.0944 546.156 47.3835 550.374C48.4222 551.704 48.3801 553.257 49.7208 553.936L50.366 553.448C52.7805 548.158 51.4433 532.529 49.9088 527.004C47.4841 518.273 39.9156 504.213 40.6115 494.994L40.6438 494.611ZM50.2657 639.141C47.9038 639.879 47.623 640.456 45.7202 641.513C38.8864 645.325 31.5561 630.172 39.3121 627.632C41.5371 626.907 42.0321 632.018 42.3457 633.297C42.8516 635.365 42.4631 636.953 44.4556 638.088C51.5272 636.898 53.0984 619.323 46.8678 617.832C44.8929 619.319 45.8872 621.757 44.1861 623.485C39.02 621.211 50.6425 611.68 37.6356 613.045C26.8013 619.053 26.9887 636.801 32.5045 646.355C36.6846 653.596 44.0472 656.167 48.7909 662.702C49.1138 663.158 49.2886 663.213 49.7777 663.427C52.4942 660.977 51.73 642.614 50.2657 639.141ZM56.373 587.624C60.202 579.185 62.2229 546.355 53.941 535.97C53.8719 535.884 53.2899 535.744 53.2111 535.716C52.6288 549.324 52.4306 562.94 52.6167 576.56C52.665 579.919 52.6697 587.601 53.4112 590.538L54.0002 590.893C55.3304 590.144 55.6382 589.122 56.373 587.624ZM61.6176 570.591C61.7049 567.926 62.3349 560.822 61.05 558.832C61.0929 561.274 60.7746 569.096 61.6176 570.591ZM60.862 580.691C61.2302 578.304 62.0252 574.621 60.926 572.522C60.7539 574.426 60.1294 579.181 60.862 580.691Z" fill="var(--fill-0, black)" fill-opacity="0.886275"/>
<path id="Vector_2" d="M61.05 558.832C62.3349 560.822 61.7049 567.926 61.6176 570.591C60.7746 569.096 61.0929 561.274 61.05 558.832Z" fill="var(--fill-0, black)" fill-opacity="0.498039"/>
<path id="Vector_3" d="M60.926 572.522C62.0252 574.621 61.2302 578.304 60.862 580.691C60.1294 579.181 60.7539 574.426 60.926 572.522Z" fill="var(--fill-0, black)" fill-opacity="0.462745"/>
<path id="Vector_4" d="M496.931 716.9C497.836 715.109 498.195 713.938 498.265 711.933C499.006 691.615 498.546 671.187 498.635 650.865L498.682 621.222C498.686 616.42 498.803 610.295 498.378 605.535C498.128 602.777 493.814 596.843 492.457 593.831C491.146 590.932 490.967 590.082 490.12 586.898C486.255 572.346 486.578 557.537 490.9 543.129C492.324 538.385 494.84 533.278 496.529 528.53C497.758 525.062 497.875 521.48 499.412 518.285C499.763 517.711 502.08 517.259 502.458 516.697C505.992 511.461 507.654 505.274 509.078 499.196C509.612 496.909 509.932 494.647 510.864 492.731L511.114 493.383L510.607 493.293L510.533 493.488L511.129 493.94C511.118 503.745 503.878 517.403 501.233 526.958C499.322 533.851 499.408 546.269 500.36 553.28L500.418 553.702C500.297 555.278 500.079 556.28 500.672 557.736C501.358 556.932 501.148 555.048 501.07 553.94C504.998 551.029 506.655 545.474 511.317 543.847C522.972 539.504 530.188 552.789 529.833 562.874C529.556 570.754 528.452 583.11 517.312 582.271C507.591 581.542 508.867 556.542 514.753 557.665C516.083 559.05 516.637 561.223 516.661 563.104C516.7 566.564 513.926 568.289 512.218 570.84L513.302 574.66C524.232 584.971 529.057 568.562 527.676 559.979C526.217 550.893 520.983 546.609 511.984 546.995C499.022 555.422 500.555 573.138 499.813 586.734C499.416 594.092 501.14 603.444 506.71 608.715C511.126 608.664 514.172 608.832 517.577 612.171C522.254 616.755 524.77 625.569 524.844 631.912C524.837 639.922 521.162 650.701 515.046 656.171C508.294 662.206 500.867 664.563 500.73 675.315C500.679 679.337 502.337 690.706 508.695 690.866C510.884 690.92 514.309 685.798 515.49 683.652C515.537 680.558 515.089 674.539 511.57 673.431C510.958 673.528 510.572 673.555 509.987 673.762C509.643 676.107 508.18 676.778 509.265 678.935L510.42 679.357C509.156 681.05 508.305 682.092 506.02 681.483C507.006 679.337 507.08 678.986 507.318 676.719L506.655 676.47L507.104 676.002C506.359 676.579 505.618 678.932 505.017 680.192C504.151 675.557 504.685 671.503 510.061 670.091C511.223 669.775 512.463 669.951 513.497 670.571C519.851 674.398 518.299 692.996 509.319 693.967C505.072 694.428 503.605 691.701 500.535 689.379C499.587 694.947 499.907 709.791 499.708 716.33C504.143 717.344 506.577 717.504 511.145 717.891C507.939 718.71 502.583 718.367 500.695 720.625C501.339 724.429 519.688 724.46 518.993 729.283C516.891 729.349 514.203 727.086 510.291 726.79C502.169 726.169 495.64 728.795 487.869 730.199C482.05 731.253 478.995 731.46 474.19 728.206C468.666 717.785 480.579 710.209 486.2 716.662L485.728 716.775C485.19 716.47 484.64 716.186 484.082 715.924C479.83 713.989 476.464 716.166 474.904 720.286C473.87 723.021 474.646 724.421 475.824 726.86C479.155 727.964 481.585 728.342 485.104 727.937C488.306 727.57 497.177 726.204 498.468 722.791L498.078 721.991C496.151 720.59 494.271 720.735 491.809 720.481C493.51 719.35 495.25 718.082 496.931 716.9ZM500.098 664.122C504.346 658.711 508.469 657.505 513.169 653.643C518.256 648.934 521.747 640.718 522.036 633.937C522.481 623.571 520.202 613.252 508.122 612.636L510.057 612.273L509.569 612.632L509.6 612.011C507.666 611.364 506.554 610.962 504.549 610.642L503.933 611.29L504.011 611.797L506.472 612.655C506.484 613.708 506.491 614.762 506.491 615.815L506.827 616.088C507.435 615.09 506.975 614.645 507.318 613.556C507.533 616.342 508.141 621.515 507.268 624.02L506.983 623.942C506.332 621.929 505.232 617.021 503.117 616.396C499.31 619.709 498.994 635.716 506.811 637.948C509.721 637.097 507.619 631.046 509.659 628.935C511.11 627.433 512.994 628.034 514.344 629.283C515.935 632.096 514.874 637.522 512.541 639.844C508.262 644.1 504.186 639.906 500.804 639.801C499.334 643.359 500.012 659.296 500.098 664.122ZM496.065 589.633C496.724 590.928 496.872 591.88 497.945 592.345C498.21 591.229 498.503 587.643 498.401 586.524C497.898 580.758 500.04 537.979 496.736 536.188C490.737 550.249 488.849 572.136 494.47 586.777C494.805 587.663 495.488 588.876 496.065 589.633ZM518.849 545.477C517.737 544.783 515.752 544.397 514.504 544.873C515.385 545.723 517.718 545.836 518.849 545.477Z" fill="var(--fill-0, black)" fill-opacity="0.886275"/>
<path id="Vector_5" d="M507.318 613.556C506.975 614.645 507.435 615.09 506.827 616.088L506.491 615.815C506.491 614.762 506.484 613.708 506.472 612.655L504.011 611.797L503.933 611.29L504.549 610.642C506.554 610.962 507.666 611.364 509.6 612.011L509.569 612.632L510.057 612.273L508.122 612.636L507.318 613.556Z" fill="var(--fill-0, black)" fill-opacity="0.941176"/>
<path id="Vector_6" d="M514.504 544.873C515.752 544.397 517.737 544.783 518.849 545.478C517.718 545.836 515.385 545.723 514.504 544.873Z" fill="var(--fill-0, black)" fill-opacity="0.54902"/>
<path id="Vector_7" d="M30.7266 80.912C36.0522 82.1686 37.188 83.9391 42.8941 84.2992C56.0891 85.1317 67.3894 74.1775 77.8769 84.8602C78.6203 87.3317 79.0939 89.0994 77.7989 91.5389C76.7566 93.5033 73.3723 96.6903 71.1513 96.8905L70.8607 96.5483C72.9854 94.0709 77.3612 91.9899 77.0402 88.2119C76.7457 84.7455 71.5983 82.8713 68.9084 82.0001C64.5064 83.2977 52.6241 84.2676 53.0847 89.8816L53.5326 90.2468C55.3226 89.7369 57.3502 88.833 58.8656 90.2772C58.0718 91.8429 54.2819 93.3476 52.6163 93.9988L52.5909 167.814L52.5539 191.962C52.5492 196.5 52.4501 201.496 52.7345 205.996C52.9326 209.131 57.1696 213.933 58.5095 216.992C62.9442 227.119 63.6338 237.234 63.328 248.147C63.275 250.033 63.2016 254.412 62.8307 256.04C62.6988 253.399 62.8268 249.8 62.4219 247.408C62.2764 250.175 61.8298 254.398 62.7425 256.899C62.3384 266.132 56.9734 276.446 53.6898 284.88C52.8281 287.093 53.0586 292.297 51.6169 293.609C45.2997 290.839 44.0846 310.855 40.6941 314.077C40.1824 308.45 49.7734 287.419 50.7404 281.294C52.0335 273.1 51.1512 262.952 50.971 254.451C49.2648 257.972 46.4219 262.089 43.7496 264.688C31.2298 276.804 19.5751 257.267 21.2753 245.516C22.3096 238.367 22.8053 234.111 28.5185 229.094C30.7923 228.944 33.8942 228.694 35.8426 230.046C41.6046 233.95 42.9246 245.72 39.7541 251.49C38.5214 253.734 34.1262 252.815 33.8897 249.315C33.5495 244.277 35.3556 244.197 38.1594 240.914C40.5217 237.766 33.9367 230.65 30.6797 232.411C18.2876 239.112 22.36 268.145 39.1222 264.167C43.9193 263.029 49.3916 250.977 49.9455 245.794C51.1937 234.117 53.4787 219.921 48.6258 208.592C48.9157 207.336 49.4746 206.636 50.1647 205.549C49.1755 205.032 48.5283 204.015 47.4822 203.98L47.0375 205.936L46.7617 205.478C46.1583 204.483 45.5026 203.199 44.3538 203.019C37.6454 201.97 34.5735 201.609 30.5999 195.397C26.1214 187.907 26.746 177.627 27.9485 169.236C30.3771 152.292 51.8541 150.251 50.7588 132.848C50.1046 122.46 39.6156 113.559 36.0211 128.135C35.1992 131.467 35.9066 136.449 39.9983 137.42L40.5689 136.97C40.8974 133.936 40.191 131.988 42.2361 130.136C43.4855 129.79 43.6528 129.838 44.9057 130.201C45.6633 130.885 46.5101 131.785 46.3158 132.941C42.9913 152.719 30.935 136.639 34.3483 125.216C35.4516 121.524 35.149 121.084 38.2377 117.826C44.1724 116.445 45.2775 117.072 49.8359 120.77C52.5129 114.589 51.3419 102.087 51.489 94.7732C48.7741 94.4794 44.305 94.1306 41.7977 93.4612L41.6143 93.1112C44.4537 92.1483 50.0929 91.7172 51.3524 89.8458L51.1672 89.0011C42.6246 84.7529 39.1678 90.8664 30.7266 80.912ZM43.5272 196.443C43.4336 194.377 42.9476 188.99 44.1868 187.516C46.2437 189.18 44.878 192.817 47.1124 193.893C52.6565 190.872 52.4735 174.125 43.168 173.399C41.7157 175.512 42.8758 182.147 39.5528 183.324C33.9558 181.966 36.0656 171.702 40.6785 169.585C45.9219 167.179 47.4642 171.484 50.0874 171.968C52.1646 169.282 52.2001 149.021 49.4095 147.289C45.2654 153.581 42.9963 153.376 37.6399 157.827C26.6806 166.932 25.1998 189.114 37.1282 198.099C39.9577 200.231 41.9194 198.713 43.5272 196.443ZM59.645 253.19C59.7756 254.234 59.9282 255.286 60.0709 256.329C60.3358 251.502 60.7625 233.681 59.5884 230.043L59.2132 230.463L59.6333 230.557L59.1106 230.65L58.7708 232.096C57.6205 225.442 57.0939 223.575 53.5556 217.827C53.0208 221.735 52.8897 226.204 52.8008 230.165C52.4684 244.951 52.2637 260.154 53.1842 274.899L53.5809 275.307C57.3623 273.113 59.3606 257.458 59.645 253.19ZM38.2749 266.995L38.0304 266.58C36.1019 266.492 34.1766 266.343 32.2574 266.134C34.4987 267.605 35.5662 267.837 38.2749 266.995Z" fill="var(--fill-0, black)" fill-opacity="0.886275"/>
<path id="Vector_8" d="M58.7708 232.096L59.1106 230.65L59.6333 230.557L59.2132 230.463L59.5884 230.043C60.7625 233.681 60.3358 251.502 60.0709 256.329C59.9282 255.286 59.7756 254.234 59.645 253.19C59.5857 246.151 59.2939 239.116 58.7708 232.096Z" fill="var(--fill-0, black)" fill-opacity="0.976471"/>
<path id="Vector_9" d="M32.2574 266.134C34.1766 266.343 36.1019 266.492 38.0304 266.58L38.2749 266.995C35.5662 267.837 34.4987 267.605 32.2574 266.134Z" fill="var(--fill-0, black)" fill-opacity="0.513725"/>
<path id="Vector_10" d="M480.825 96.2978C482.163 95.8078 483.477 95.1423 484.831 95.3272C484.098 96.4391 481.695 97.02 480.431 96.7988C472.294 95.3607 469.138 85.9838 477.314 81.4863C484.051 77.7804 492.605 82.0688 499.548 83.3543C502.696 83.9368 504.744 84.2867 507.892 84.3827C510.622 84.4662 517.125 81.7087 519.032 82.2802C516.391 88.5657 502.435 86.1691 500.012 89.6167C501.764 92.2595 510.248 93.1455 513.762 93.9075C509.635 93.9098 505.509 93.9793 501.382 94.115C499.817 99.4642 499.482 114.327 500.547 119.671C500.508 121.501 500.391 123.466 500.582 125.266C501.261 123.502 500.906 122.056 501.272 120.704C504.038 119.008 506.035 116.441 509.854 117.036C519.044 118.466 518.529 133.407 514.769 139.569C510.981 141.971 509.877 142.865 506.265 139.645C505.251 136.552 503.324 132.039 506.889 129.863C510.193 129.699 511.184 132.471 510.533 135.206C510.232 136.467 510.279 136.584 510.993 137.541C511.746 137.596 512.03 137.683 512.608 137.071C515.724 133.779 516.154 130.269 514.582 126.173C512.569 120.922 509.304 117.799 504.568 122.818C500.27 127.435 500.005 133.444 501.101 139.355C498.87 142.255 500.48 144.763 500.555 148.264C499.962 152.202 499.349 168.823 500.824 171.913C503.207 172.244 511.36 162.415 514.901 176.453C514.047 175.989 513.918 175.533 513.443 174.673L513.263 174.34L512.487 174.447C511.793 172.855 512.148 173.045 510.93 172.167C509.803 173.591 511.184 178.333 511.882 179.966L512.327 180.216C513.134 178.982 512.99 177.753 513.041 176.228C513.15 177.651 513.287 179.071 513.45 180.487L514.289 181.143C513.618 182.231 512.561 183.214 511.305 183.513C507.79 181.321 509.803 174.89 505.836 173.506C500.301 174.689 497.98 193.621 504.6 193.218C505.758 191.635 505.973 188.99 506.924 186.716L507.455 186.568C509.717 189.909 504.822 197.527 508.461 199.401C510.568 199.459 514.64 197.336 516.064 196.064C520.206 192.292 522.032 185.714 522.383 180.586C523.389 165.92 515.331 158.682 504.471 150.995C504.264 150.849 501.955 147.812 501.374 147.149L501.116 146.913C501.054 145.035 500.726 142.296 501.717 140.849L501.822 141.24C503.238 146.393 511.122 151.163 514.987 155.079C526.011 166.241 527.536 181.922 520.109 195.485C516.618 201.859 513.337 202.983 506.398 202.433C503.96 205.843 500.917 210.551 500.371 214.948C499.193 224.459 500.11 233.633 501.027 243.147C502.283 256.211 513.287 276.091 525.215 257.499C530.067 249.938 527.887 240.027 522.282 233.186C520.479 232.392 519.567 231.923 517.597 232.749C514.402 234.091 511.722 237.006 512.772 240.674C514.913 242.864 523.062 251.904 513.173 252.104C508.286 252.203 509.518 239.188 510.884 236.517C512.335 231.812 516.969 227.081 522.406 229.299C526.381 230.922 526.389 233.858 528.14 237.541C533.402 248.619 526.935 273.485 510.989 267.063C507.459 265.641 503.11 258.869 500.129 255.443C500.379 261.89 499.341 277.636 500.644 282.623C503.047 291.824 508.118 300.737 510.053 311.01C509.897 311.12 509.359 311.536 509.206 311.565C508.122 306.952 505.895 300.013 503.457 295.923C502.427 294.195 501.565 293.979 499.735 293.629L499.318 293.551C498.655 292.605 498.28 286.717 497.235 284.535C487.015 263.239 483.13 237.921 493.369 215.865C495.105 212.13 498.292 209.146 498.522 204.698C498.823 198.804 498.667 192.866 498.635 186.941L498.663 158.72L498.604 119.336C498.577 112.654 498.635 106.038 498.296 99.3624C497.941 92.3543 493.475 93.5841 493.081 89.8192C494.692 89.1708 495.671 90.1602 498.163 89.9624L498.585 89.4314C498.015 84.7041 485.693 82.9797 481.714 82.226C476.862 83.8353 476.167 84.5766 473.706 89.0756C475.781 93.3281 476.651 94.0846 480.825 96.2978ZM495.398 272.082C495.928 273.381 496.155 274.451 497.294 275.157L497.984 274.825C498.959 269.914 499.15 224.132 498.101 219.657L497.532 219.058C489.715 230.4 489.133 260.21 495.398 272.082ZM501.085 205.924L501.53 206.93L502.092 206.843C502.903 205.077 503.281 203.946 502.552 201.982L501.155 201.611L501.105 200.52L501.479 200.189C502.029 199.695 502.435 199.234 502.926 198.685L502.899 197.983L501.346 196.919L500.777 197.033C499.751 198.955 500.262 203.077 500.399 205.401C500.832 205.911 500.59 205.831 501.085 205.924ZM513.111 200.918C511.289 200.18 508.231 200.496 506.215 200.663C508.766 201.136 510.626 201.708 513.111 200.918Z" fill="var(--fill-0, black)" fill-opacity="0.882353"/>
<path id="Vector_11" d="M501.085 205.924C500.59 205.831 500.832 205.911 500.399 205.401C500.262 203.077 499.751 198.955 500.777 197.033L501.346 196.919L502.899 197.983L502.926 198.685C502.435 199.234 502.029 199.695 501.479 200.189L501.105 200.52L501.155 201.611C501.159 202.992 501.206 204.563 501.085 205.924Z" fill="var(--fill-0, black)" fill-opacity="0.670588"/>
<path id="Vector_12" d="M501.155 201.611L502.552 201.982C503.281 203.946 502.903 205.077 502.091 206.843L501.53 206.93L501.085 205.924C501.206 204.563 501.159 202.992 501.155 201.611Z" fill="var(--fill-0, black)" fill-opacity="0.964706"/>
<path id="Vector_13" d="M506.215 200.663C508.231 200.496 511.289 200.18 513.111 200.918C510.626 201.708 508.766 201.136 506.215 200.663Z" fill="var(--fill-0, black)" fill-opacity="0.458824"/>
<path id="Vector_14" d="M456.609 734.409C456.867 734.393 457.128 734.382 457.385 734.378C462.69 734.265 464.407 735.267 468.046 738.825C468.846 749.812 464.297 753.046 463.092 763.583C462.655 767.399 465.936 770.122 465.948 772.451L465.148 772.896C462.659 772.361 460.662 768.113 459.675 765.948C440.636 766.911 420.407 765.386 401.235 765.854C392.31 766.069 381.85 766.182 373.006 765.472C373.196 769.279 374.857 774.929 372.037 777.96C365.218 785.298 351.06 782.782 347.491 773.251C346.839 771.507 347.401 767.208 346.243 766.158C343.593 765.44 341.15 766.42 338.582 767.227L336.56 769.833C329.247 762.522 321.684 764.044 311.415 762.105C317.793 761.367 327.207 761.652 332.732 759.382C333.481 757.782 333.74 756.85 335.308 756.116C337.242 756.007 338.623 756.998 340.398 757.903C349.669 758.352 354.471 756.947 363.259 755.121C366.922 754.361 373.507 756.163 377.44 755.047C380.263 754.224 381.77 751.712 384.901 751.438C390.738 750.923 395.087 755.785 389.73 760.486C388.191 760.872 388.683 760.977 387.386 760.501C386.756 759.124 386.856 759.725 387.002 758.219C387.864 757.134 388.169 757.372 389.783 757.017C390.527 756.225 390.324 756.612 390.34 755.281C387.035 750.362 376.734 754.817 381.45 761.371C382.585 762.947 384.388 763.408 386.078 763.693C396.944 765.518 397.865 754.614 404.519 749.418C412.075 743.761 422.544 745.325 428.146 752.827C428.239 754.349 428.118 756.147 428.899 757.271C432.07 758.453 447.01 758.555 450.711 757.127C452.162 756.565 452.162 751.567 455.595 751.739C456.438 753.651 454.039 755.749 455.958 757.829C460.81 758.8 463.213 749.496 464.5 746.261C468.541 736.129 454.561 732.517 450.076 739.937C449.089 741.568 450.274 743.776 450.938 745.286L450.22 745.501C449.334 744.627 449.346 744.584 449.081 743.292C447.825 737.175 451.086 735.236 456.609 734.409ZM370.895 755.941C368.67 755.504 364.583 755.683 362.323 755.964C357.025 757.076 354.04 758.871 350.88 763.427C345.485 771.203 350.607 779.7 359.404 780.87C366.41 781.826 374.422 777.964 372.243 769.588C370.876 764.574 362.944 768.476 360.674 767.621C360.286 766.346 360.308 766.884 360.771 765.526C362.952 763.459 376.506 763.923 380.166 764.028C380.672 764.044 381.177 764.067 381.682 764.098C379.981 762.276 379.697 761.8 378.742 759.464C375.708 757.294 374.598 756.545 370.895 755.941ZM416.483 753.054C416.927 754.318 417.185 754.634 416.783 755.816C414.536 757.778 411.825 756.35 411.104 759.105C411.661 761.083 412.582 761.75 414.131 763.123C431.251 766.658 429.963 746.468 412.414 747.642C404.738 748.93 399.909 757.739 396.776 764.032C401.048 764.013 405.923 763.88 410.136 764.102C409.645 758.582 408.435 752.129 416.483 753.054ZM338.258 765.257C337.801 762.69 338.78 761.754 338.214 758.98L337.446 758.531C337.277 760.451 336.782 764.29 337.741 765.87L338.258 765.257ZM434.371 760.529C431.586 760.7 428.969 760.474 426.933 762.362C428.04 764.836 442.52 763.899 445.168 763.821C447.244 763.661 449.354 763.622 451.277 762.842L451.566 761.851C448.028 759.873 438.436 760.092 434.371 760.529ZM415.706 754.513L412.871 754.583L412.473 755.036L412.754 755.394C414.025 755.469 414.7 755.726 415.691 755.199L415.706 754.513ZM335.188 759.085C335.11 760.884 334.886 763.56 335.222 765.241C335.521 765.394 335.651 765.542 335.871 765.495C336.039 763.849 336.588 760.263 335.188 759.085ZM455.579 760.252C454.148 761.075 454.043 760.829 453.372 762.159C454.179 763.634 455.852 763.802 457.452 763.997C459.152 763.154 458.762 763.622 459.574 762.265C458.961 760.334 457.432 760.361 455.579 760.252ZM347.149 763.65C348.537 763.135 348.948 763.135 349.689 761.968C348.742 759.655 343.012 760.345 340.924 760.544C339.436 761.258 339.653 760.888 338.924 762.089C340.248 764.165 344.95 764.016 347.149 763.65Z" fill="var(--fill-0, black)" fill-opacity="0.901961"/>
<path id="Vector_15" d="M337.446 758.531L338.214 758.98C338.78 761.754 337.801 762.69 338.258 765.257L337.741 765.87C336.782 764.29 337.277 760.451 337.446 758.531Z" fill="var(--fill-0, black)" fill-opacity="0.756863"/>
<path id="Vector_16" d="M335.188 759.085C336.587 760.263 336.039 763.849 335.871 765.495C335.651 765.542 335.521 765.394 335.222 765.241C334.886 763.56 335.11 760.884 335.188 759.085Z" fill="var(--fill-0, black)" fill-opacity="0.0666667"/>
<path id="Vector_17" d="M415.706 754.513L415.691 755.199C414.7 755.726 414.025 755.469 412.754 755.394L412.473 755.036L412.871 754.583L415.706 754.513Z" fill="var(--fill-0, black)" fill-opacity="0.588235"/>
<path id="Vector_18" d="M362.323 755.964C364.583 755.683 368.67 755.504 370.895 755.941C368.047 756.186 365.173 756.077 362.323 755.964Z" fill="var(--fill-0, black)" fill-opacity="0.584314"/>
<path id="Vector_19" d="M90.4118 734.358C90.6248 734.343 90.8382 734.331 91.0515 734.323C97.8158 734.101 107.408 738.322 100.211 745.68L99.9725 745.59C100.654 744.318 101.659 742.832 101.493 741.369C100.575 732.864 84.1601 734.904 86.1386 743.971C87.0174 747.997 89.586 754.563 92.723 757.4C93.4255 758.036 94.492 758.047 95.3567 757.852C95.7616 756.335 95.2557 752.082 95.1547 750.241C100.599 755.324 98.5191 758.328 107.729 758.125C112.441 758.02 117.412 758.125 122.221 757.817C124.117 748.341 129.222 745.38 139.079 746.308C144.671 746.835 149.632 751.271 152.139 756.218C155.674 763.193 166.091 767.984 170.667 759.428C172.944 755.094 165.16 751.516 161.305 753.939C159.75 757.294 163.203 756.943 163.991 759.928C163.157 760.868 163.465 760.572 162.005 760.911C161.435 760.731 160.65 760.607 160.358 760.162C155.684 754.076 164.327 748.984 168.751 752.418C175.787 757.876 180.46 753.982 188.029 755.075C193.614 755.878 197.819 757.606 203.986 758.016C206.354 758.047 210.596 758.582 212.528 757.107C212.617 757.041 212.701 756.967 212.793 756.904C215.828 754.79 216.737 756.982 218.719 758.933C221.732 761.898 234.187 761.535 238.836 762.327C232.852 763.435 226.073 763.548 220.164 765.355C219.428 765.581 215.989 768.448 214.761 769.194C213.337 768.718 213.36 768.331 212.289 767.063C209.846 766.408 205.569 764.832 203.659 767.083C203.674 767.063 203.282 771.421 203.28 771.714C203.163 785.38 174.282 786.289 177.637 770.696C177.974 769.131 178.126 767.368 178.324 765.764C168.04 766.127 157.697 765.823 147.414 765.858C129.019 765.959 110.625 765.948 92.2303 765.827C90.6747 768.21 87.2366 774.078 84.0108 772.592C94.9047 762.784 79.8858 751.536 84.2822 737.749C86.6671 735.544 87.287 735.115 90.4118 734.358ZM183.166 779.536C199.822 787.495 211.063 765.171 193.012 757.435C188.854 755.656 183.535 755.746 179.084 756.151C172.978 757.739 173.493 757.263 171.183 762.748C173.894 765.082 187.921 762.612 190.834 766.049C190.909 767.231 190.996 766.767 190.204 767.887C187.946 768.495 185.794 766.385 184.687 766.509C176.134 767.481 176.988 775.721 183.166 779.536ZM141.816 758.348L140.583 764.223L141.093 764.169C143.61 763.923 152.705 764.325 153.787 763.857C153.917 762.378 152.596 761.161 152.022 759.725C149.905 754.439 143.976 748.161 138.028 747.681C136.978 747.599 135.923 747.588 134.871 747.65C127.918 748.594 119.979 755.192 127.387 761.98C131.42 765.678 139.598 763.817 140.175 758.726C138.458 755.827 134.108 757.486 133.891 754.716C134.691 753.522 134.805 753.374 136.009 752.593C137.248 752.453 137.417 752.589 138.639 753.011C140.796 754.758 141.017 755.714 141.816 758.348ZM120.393 763.814C121.702 763.646 123.55 763.521 124.697 762.998L124.89 762.011C120.917 759.924 109.719 760.15 105.102 760.517C103.173 760.646 101.635 760.556 100.044 761.633L99.7146 762.202C101.704 764.137 111.175 763.989 114.13 763.946C116.218 763.915 118.305 763.872 120.393 763.814ZM209.39 763.849C210.647 763.525 211.475 763.474 212.302 762.518L212.357 761.836C211.171 760.587 208.673 760.373 207.028 760.341C205.906 760.326 204.785 760.337 203.663 760.38C202.263 760.821 201.958 760.665 201.11 761.668C201.937 763.81 207.357 764.009 209.39 763.849ZM95.8053 763.997C97.1417 763.135 96.983 763.509 97.5634 762.273C96.9014 760.337 95.0856 760.283 93.2312 760.216C91.9425 761.211 91.9569 760.888 91.4623 762.179C92.3602 763.974 93.9728 763.845 95.8053 763.997Z" fill="var(--fill-0, black)" fill-opacity="0.890196"/>
<path id="Vector_20" d="M216.583 759.819C217.409 761.075 217.043 764.254 216.961 765.877L216.707 765.834C216.414 764.609 216.562 761.254 216.583 759.819Z" fill="var(--fill-0, black)"/>
<path id="Vector_21" d="M178.669 45.2313C177.719 40.8828 176.161 36.67 179.419 32.9085C184.432 27.1214 194.046 27.3002 199.597 32.2128C203.805 35.9372 203.995 40.0487 204.35 45.2262C206.635 45.2968 208.8 45.1923 211.076 45.1006C217.159 38.2293 216.06 44.7967 220.754 46.0525C226.297 47.5354 232.647 47.2639 238.46 48.5357C232.471 49.2325 225.855 50.3772 219.799 51.2503C218.435 52.4933 217.668 53.4382 216.51 54.8649C213.661 55.6191 212.917 53.709 210.364 52.7426C208.393 51.9963 206.83 52.2112 204.944 52.1332C198.73 51.8753 194.66 54.8868 188.872 55.8512C184.225 56.6623 179.252 55.6409 174.64 56.5726C169.89 57.5319 158.241 64.7358 159.444 53.368C159.55 52.37 161.666 50.346 162.623 49.8052L163.657 50.1068C164.526 51.2761 164.369 50.7353 164.386 52.1199C163.287 53.2154 162.8 52.8678 160.884 53.2236L160.334 54.032C160.379 55.138 160.383 55.7267 161.368 56.5363C167.535 61.6038 175.642 53.4561 167.775 48.4339C166.177 47.4207 164.315 46.9038 162.424 46.9487C154.524 47.148 152.55 56.3646 147.164 60.8067C140.942 65.9374 133.457 65.8301 126.704 61.6342C123.409 59.5871 122.444 56.6596 121.703 52.9946C115.528 52.0727 108.283 52.3829 102.013 52.1765C99.0843 52.0797 99.4521 56.656 97.3266 59.0074C97.1281 56.7633 97.8079 55.1731 97.5567 52.91C96.7161 55.7072 96.0928 57.1714 96.8339 59.9738L95.961 60.2395L95.2733 59.7487C94.6745 57.0473 96.6436 54.0909 94.953 52.3189C92.3559 51.9206 90.9599 54.3332 89.9839 56.4859C88.1428 60.5473 85.6401 66.6654 86.5829 71.1847C86.9893 73.1346 91.9159 74.7978 93.5421 75.3963C96.7255 74.4049 101.724 73.1912 101.186 68.9828C100.956 67.1925 99.525 65.9733 98.3755 64.577C102.285 64.403 103.434 70.1033 101.639 73.0051C98.7582 77.663 90.3974 77.4749 86.2006 74.6511C77.1673 68.5732 89.7889 55.0194 88.0199 47.1437L87.9559 46.866C87.3513 44.1752 84.4231 38.4747 84.6544 37.4738C86.8072 37.6015 89.5014 41.9795 91.1533 43.5732C94.1557 46.4692 97.5287 45.3409 101.471 45.2683C106.464 45.2153 111.458 45.2165 116.452 45.2715C137.19 45.4993 157.931 45.486 178.669 45.2313ZM174.088 52.1948C178.312 55.3943 182.515 55.7958 187.649 55.0514C207.181 52.2202 208.289 28.8484 185.92 30.1492C182.798 31.7102 180.524 32.6541 178.945 36.2669C177.285 40.0631 181.36 46.3564 185.672 44.815C186.336 44.5774 187.072 43.21 187.546 42.5561C189.291 42.3755 189.617 42.7629 190.639 44.1194C190.036 47.8542 172.899 45.1888 169.522 46.3092L169.445 46.7555C170.671 48.2931 172.668 50.9694 174.088 52.1948ZM215.181 44.9886C214.906 46.8738 214.028 50.8539 215.9 52.1308C216.178 49.9539 216.498 47.7231 215.886 45.5793L215.181 44.9886ZM93.5573 46.0077C92.2011 46.7376 92.0248 46.8363 91.3339 48.201C91.1643 51.4563 94.0313 51.2148 96.3608 51.104C97.3282 50.5715 97.02 50.7552 97.5798 49.5302C97.3473 47.6099 97.6203 48.3551 96.4244 46.7157C95.1484 46.1247 94.9877 46.152 93.5573 46.0077ZM205.906 46.1793C204.017 46.8983 200.926 47.9927 201.703 50.4572C203.045 51.4957 204.845 51.2097 206.64 51.1844C209.136 51.2152 212.201 51.6845 212.417 48.3879C210.815 45.7463 208.636 46.0151 205.906 46.1793ZM100.84 51.0182C106.952 51.1832 114.73 51.3069 120.827 50.8727C122.522 50.4954 124.233 49.6223 125.283 48.2033C124.392 45.2223 107.688 46.0599 104.663 46.2047C103.167 46.4114 101.72 46.4821 100.462 47.3158C99.4002 48.9286 99.9163 49.3925 100.84 51.0182ZM141.931 53.153C140.489 56.3287 137.594 60.2274 134.014 56.8936C134.127 54.1143 138.912 54.6125 139.861 50.9772C139.612 49.5676 139.167 49.1151 137.959 48.2346C136.186 46.9452 133.968 46.4267 131.808 46.7973C126.063 47.7461 123.822 52.6696 125.503 58.0305C137.648 71.2128 149.345 58.4565 154.875 46.399C150.097 46.079 145.305 45.9889 140.518 46.129C140.966 48.2884 141.614 51.0182 141.931 53.153Z" fill="var(--fill-0, black)" fill-opacity="0.886275"/>
<path id="Vector_22" d="M215.181 44.9886L215.886 45.5793C216.498 47.7231 216.178 49.9539 215.9 52.1308C214.028 50.8539 214.906 46.8738 215.181 44.9886Z" fill="var(--fill-0, black)" fill-opacity="0.0313725"/>
<path id="Vector_23" d="M346.892 43.0922C347.331 38.2273 347.786 35.2533 351.721 31.9458C357.278 27.2746 367.043 27.2239 371.797 33.0709C374.477 36.3672 373.579 40.2465 373.098 44.0741L372.952 45.2231C385.829 45.454 398.122 45.1716 410.83 45.2992C419.939 45.4131 429.051 45.4029 438.159 45.2691C445.25 45.2016 452.915 45.5625 459.78 44.0102C461.754 40.4193 463.002 39.0777 466.603 37.0461C460.697 51.3502 464.606 53.3641 468.432 67.1531C470.309 73.9032 458.883 78.5829 453.052 75.4954C447.583 72.5994 446.694 67.0391 452.385 64.3808C452.155 65.6647 450.165 67.8963 449.272 69.3004C450.45 71.9716 451.355 73.4815 454.308 74.6452C455.228 75.0018 456.165 75.3233 457.109 75.6097C465.378 72.8951 466.416 69.0897 463.311 61.1453C462.296 58.5556 459.086 51.4356 455.517 52.3372C454.69 54.5208 456.558 57.9985 455.732 59.8052C452.654 60.1287 451.413 54.4565 451.008 52.1262C447.852 52.1823 431.734 51.6166 429.094 54.0285C427.951 55.0717 426.578 62.3536 423.012 63.0172C417.36 65.5133 409.188 65.2621 404.262 61.2913C397.97 56.2448 396.554 45.8235 386.371 47.143C384.975 47.3236 382.373 48.6524 381.646 49.8532C378.175 55.5878 381.437 56.9654 386.199 58.1655C387.803 57.5023 389.341 57.0548 390.426 55.7267C391.194 53.0668 388.141 53.7062 387.096 51.2874C388.601 48.8611 391.959 50.7915 392.259 53.2439C392.723 57.0766 390.172 59.8037 386.524 60.1337C382.61 60.4872 380.761 56.6389 377.516 55.3889C373.592 54.7791 371.366 56.8523 366.328 56.3607C356.739 55.4256 348.431 49.506 338.585 53.3173C338.493 52.8386 338.437 52.1757 338.378 51.6759C339.721 50.6179 341.407 51.9756 343.535 51.191L345.643 51.1816C347.532 51.1766 348.194 51.3065 349.08 49.5809L348.742 48.6122C346.582 46.42 342.719 45.3585 339.888 46.7797C338.864 48.0875 339.169 47.759 339.034 49.6648L338.943 50.4365C337.548 49.0492 339.102 45.0136 337.462 44.8224C335.999 46.4099 336.17 48.3216 336.1 50.4318C336.083 48.8783 336.236 47.2815 335.587 45.9308C334.789 47.0989 335.045 50.1033 335.117 51.5425C334.889 52.3961 334.852 52.853 334.249 53.5022C327.967 49.4877 320.558 50.2094 313.156 48.3087C320.318 47.4153 325.618 46.9533 332.766 45.6226C333.414 44.1853 333.638 43.2896 334.902 42.3778C337.487 41.7797 338.596 43.4523 340.456 45.1427C342.125 45.2586 343.867 45.5707 345.32 44.808L346.892 43.0922ZM425.61 51.2733C424.214 49.0874 423.313 47.8222 420.59 47.2042C417.509 46.5059 411.864 48.0859 411.17 51.5121C411.349 52.4835 411.318 52.7196 412.005 53.4448C413.604 54.0222 415.952 54.7241 417.169 55.7931L417.47 56.5492C416.732 57.67 417.068 57.297 415.784 57.9427C407.757 57.8128 409.411 51.7536 410.343 46.0872C407.417 46.097 403.396 45.9963 400.564 46.1602C399.136 46.4204 397.51 46.4021 396.811 47.2943C407.09 73.7062 432.191 62.0107 425.61 51.2733ZM445.473 51.1458L450.922 51.0053C451.086 49.5548 451.413 48.3383 450.801 47.0833C448.082 45.7829 436.123 45.9721 432.877 46.2117C430.892 46.3697 428.005 46.4169 426.285 47.2397L425.915 47.8386C427.818 52.4067 441.256 51.1754 445.473 51.1458ZM458.033 51.2562C459.57 50.5933 459.699 49.9223 459.465 48.258C458.154 46.1758 458.142 46.0603 455.49 46.035C454.39 46.8976 453.855 47.1445 453.387 48.4577C453.563 51.2257 455.829 51.2433 458.033 51.2562ZM349.24 45.9495C353.391 51.3447 357.112 54.1646 364.057 55.0584C371.025 55.955 375.797 54.4124 379.87 48.7897C380.837 47.5284 381.024 47.7348 381.012 46.4957C378.736 44.8778 362.555 47.8827 360.08 44.398C360.085 43.2217 360.12 43.5549 360.97 42.3899C363.037 41.6943 363.563 42.6154 365.11 43.9107C369.05 47.2124 373.387 41.2554 372.191 37.2404C370.216 30.6086 364.978 29.8966 359.069 30.1348C350.102 32.0021 347.882 37.4957 349.24 45.9495ZM416.015 56.1122C414.72 55.6257 412.578 55.2254 411.178 55.0655C412.629 56.4512 414.287 57.7492 416.015 56.1122Z" fill="var(--fill-0, black)" fill-opacity="0.890196"/>
<path id="Vector_24" d="M411.178 55.0655C412.578 55.2254 414.719 55.6257 416.015 56.1122C414.287 57.7492 412.629 56.4512 411.178 55.0655Z" fill="var(--fill-0, black)" fill-opacity="0.576471"/>
<path id="Vector_25" d="M56.9636 18.1609C62.5213 11.0635 72.3702 8.34385 77.3226 19.282C79.2347 23.5053 73.0564 27.21 69.472 26.6223C66.7478 26.6131 65.5947 26.1312 63.5184 24.5162C63.9311 23.9458 64.1823 23.4914 64.5357 22.8898L65.3162 22.9434C66.8777 24.1333 69.3363 25.0651 71.1973 24.0683L71.1439 23.3975C70.1609 22.782 69.8574 22.8754 68.6275 22.8418L68.232 22.8344L68.2788 22.647L69.8161 22.2791L69.9912 21.7155C68.9599 19.8682 68.395 22.6228 64.7288 20.5137C69.0234 16.2557 72.6893 24.236 75.3625 22.8023C76.12 18.9553 74.0117 16.9318 71.1973 14.9976C60.9856 13.5814 55.2929 19.097 61.1463 28.6095C69.8434 32.4094 98.2573 33.8285 107.671 30.6634C116.593 27.6636 115.693 19.253 104.016 18.1809C104.807 16.2608 108.622 17.8931 109.989 18.5599C123.013 24.9168 108.922 33.0241 101.478 34.8258C94.4549 36.5255 85.7571 35.392 78.5579 34.6883L78.3333 35.3165C79.7668 37.8814 81.7195 40.0292 82.4189 42.9677C85.5886 56.2831 69.4701 63.0508 59.4148 56.4259C58.4092 55.7638 56.9999 54.1135 56.1675 53.226C55.6218 49.7545 55.0351 47.5522 57.1715 44.4272C59.9114 40.4197 68.9193 38.5929 69.1498 45.4693C69.316 50.417 61.504 48.4472 58.6316 48.1916C57.6767 49.7857 58.5887 51.4676 59.1839 53.1292C62.2393 55.8403 64.9804 57.4847 69.2918 57.1933C72.5571 56.9506 75.593 55.4236 77.7353 52.947C79.6868 50.6959 80.7501 47.9966 80.458 45.003C80.3733 44.2052 80.2626 43.4105 80.1249 42.6205C75.3832 36.8294 71.7684 33.4762 65.4695 33.055C56.3415 32.2636 45.5938 38.0045 43.514 47.4348C43.4445 47.75 39.1253 48.389 38.5789 48.5732C21.6734 54.2684 21.8718 76.1098 40.8045 78.1764C44.2844 78.6403 48.2958 77.3376 50.8235 75.083C52.3311 73.7382 56.0727 69.3901 55.6268 67.4753C54.3439 61.9685 47.1054 56.8207 42.1249 60.3647C41.0452 59.9593 40.081 59.481 39.0414 58.9879C42.2661 57.9404 43.2175 57.4792 46.5167 57.629C54.5405 57.9938 60.4142 65.3978 56.1328 72.8366C51.4028 81.0552 38.883 82.3575 31.3629 77.5003C29.6813 76.4141 28.6723 75.848 27.2765 74.44C28.2389 82.3899 30.2314 94.6608 24.9447 101.327C22.3778 104.563 19.788 105.606 16.179 107.212C13.8981 106.441 9.71912 105.254 8.34451 103.374L8.3586 102.587C9.04754 102.6 12.9721 105.01 15.6365 105.685C19.0086 104.265 23.5393 101.097 24.6508 96.9708C27.0793 87.2357 24.0673 74.4592 21.2448 65.0167C19.4912 59.1498 11.7495 59.2231 7.26835 61.372C-2.52954 66.0697 10.5494 79.9749 14.7845 71.8796C13.9476 70.1224 8.12806 69.5536 9.86552 65.9624C11.6544 62.265 16.7692 63.9707 18.1891 67.5935C16.6491 67.2131 13.4084 65.7696 12.0012 66.8281C12.8217 68.2154 15.5044 69.0601 17.0303 69.4806C18.6331 69.9219 16.8721 70.4915 17.7331 72.0142C14.3454 77.748 1.54341 76.0747 0.989981 69.5649C-0.117352 56.5406 13.8986 57.5241 22.5546 60.3772C27.5616 54.7775 25.4161 54.0862 33.1633 48.5373C29.0198 44.9449 27.3257 43.3497 25.0541 38.1598C24.4033 36.673 23.3994 34.3933 22.4732 33.0848C22.8953 32.6601 24.3824 32.6159 25.139 32.5173L25.578 31.6849L24.7584 30.2074L25.4921 29.3642C29.6859 32.9268 32.2024 31.8386 36.989 33.9445C38.7124 34.7027 41.2106 37.4075 43.3119 38.2656C45.5911 39.1963 48.8361 34.8471 51.0654 34.0019C53.7475 32.985 56.3656 32.3884 59.0485 31.2287L59.2643 30.0725C58.9066 28.4807 58.1011 27.8521 56.9788 26.6431C58.7427 24.6555 59.1301 19.9825 56.9636 18.1609ZM39.2458 37.5223C36.641 33.6883 30.8696 33.5582 26.3212 32.3292C28.4178 34.7049 36.0786 37.7226 39.2458 37.5223ZM31.1614 44.0102C30.8444 41.3178 27.5848 34.1102 24.7146 33.7087C25.628 36.7809 27.6163 41.36 29.889 43.6399C30.378 43.8096 30.6593 43.9536 31.1614 44.0102Z" fill="var(--fill-0, black)" fill-opacity="0.890196"/>
<path id="Vector_26" d="M26.3212 32.3292C30.8696 33.5582 36.641 33.6883 39.2458 37.5223C36.0786 37.7226 28.4178 34.7049 26.3212 32.3292Z" fill="var(--fill-0, black)" fill-opacity="0.01"/>
<path id="Vector_27" d="M47.8789 759.748C51.631 753.237 60.1392 747.568 66.7505 744.065C64.6211 746.854 62.1426 749.601 59.3782 751.778L59.4339 752.386C61.971 753.471 65.8479 751.61 68.4547 751.688C73.6602 751.832 79.972 754.817 81.9336 759.951C84.4784 766.611 81.4729 771.577 77.101 776.415C89.5049 775.721 101.836 773.341 112.567 781.686C119.776 787.292 110.107 793.823 106.607 793.109C109.416 791.665 115.658 789.27 113.241 785.283C109.695 779.435 100.24 777.738 93.9224 777.866C85.1178 778.576 75.3765 780.219 66.486 781.171C65.0237 781.331 63.0304 781.76 61.6519 782.185C59.7335 784.46 58.8016 785.677 58.8395 788.895C58.967 799.659 79.3139 798.352 74.4439 788.115C71.6435 787.015 68.9973 794.295 63.5496 790.105C61.6554 785.213 69.7806 782.661 73.0057 784.467C75.8672 786.067 79.466 790.39 76.8108 793.671C72.5107 799.035 65.5752 799.296 59.7838 796.655C55.039 789.091 53.5318 788.915 59.5112 780.437C57.2534 779.528 55.268 778.682 53.082 777.667C50.4163 776.427 45.3516 772.939 42.7128 772.471C43.7991 772.159 44.4232 772.12 45.1343 771.316C44.9487 770.438 44.9526 770.298 45.2884 769.467C49.7902 775.311 61.3059 779.493 68.4446 777.472C79.9049 774.222 86.2634 761.847 73.4972 754.899C68.3002 752.07 61.804 753.1 59.0743 758.773C58.4833 760.002 57.8323 761.051 58.286 762.456C59.4156 763.322 59.1 763.041 60.8928 763.018L61.9347 763.392C62.3361 765.113 61.3788 764.582 62.2307 766.232L64.02 766.942L63.9783 767.547C63.2379 767.668 62.6727 767.762 61.9351 767.929C66.1537 769.533 66.9373 765.257 68.5881 768.07C67.5505 769.467 66.6651 770.309 64.8134 770.438C56.7206 770.992 53.5091 763.217 56.9578 756.865C57.2882 756.257 57.9895 755.648 57.7352 755.098C54.0872 756.463 51.4917 758.633 47.8789 759.748ZM68.0409 779.911C66.4685 779.232 64.302 779.322 62.6501 779.661L62.8845 780.199C64.568 780.106 66.3721 780.043 68.0409 779.911Z" fill="var(--fill-0, black)" fill-opacity="0.898039"/>
<path id="Vector_28" d="M62.6501 779.661C64.302 779.322 66.4685 779.232 68.0409 779.911C66.3721 780.043 64.568 780.106 62.8845 780.199L62.6501 779.661Z" fill="var(--fill-0, black)" fill-opacity="0.521569"/>
<path id="Vector_29" d="M23.3767 737.425C24.4535 738.537 24.3859 739.469 24.5377 740.928L24.895 741.361C25.4556 739.961 25.5202 738.95 25.7285 737.468C26.9932 738.763 26.1901 738.728 27.6859 740.144C23.2304 748.528 27.855 757.041 35.7042 761.301C38.4745 762.807 40.739 762.928 43.837 763.205C44.1018 766.037 44.0839 766.864 45.2884 769.467C44.9526 770.298 44.9487 770.438 45.1343 771.316C44.4232 772.12 43.7991 772.159 42.7128 772.471C42.5115 773.329 42.4686 772.927 42.8442 773.723L42.4335 774.203C40.4819 774.133 39.8274 775.561 37.9261 776.454C34.0954 778.256 30.7844 779.037 26.7715 780.074C26.0481 781.315 25.5768 782.17 24.6586 783.297C24.8263 781.608 25.6233 779.634 25.0786 778.358C24.3631 778.03 24.478 778.011 23.7251 777.89L23.0017 777.07C25.0665 772.83 26.9519 768.07 30.2996 764.851L30.2787 764.196L31.1478 763.462L32.0569 763.24C31.998 762.429 31.2176 761.477 30.6041 760.958C28.2783 758.991 24.5492 751.778 22.2667 750.697C22.5901 750.654 22.3827 750.709 22.8218 750.369C20.9863 749.32 21.1186 749.745 19.6038 749.18L19.2019 749.024C22.1785 745.395 22.6419 741.876 23.3767 737.425ZM28.5692 778.35C30.742 777.987 39.0711 776.228 38.6595 773.516L37.4896 772.795C34.7425 773.926 29.836 775.861 27.7762 777.839L27.7506 778.451L28.5692 778.35ZM26.2121 777.347L26.4149 776.973C28.0017 774.078 31.22 770.672 31.5097 767.797L31.1868 767.114L29.8603 766.783C28.4089 769.276 25.3479 774.098 25.043 776.801L25.3405 777.41C25.5192 777.402 26.0736 777.402 26.2121 777.347Z" fill="var(--fill-0, black)" fill-opacity="0.878431"/>
<path id="Vector_30" d="M13.0627 704.427C22.3396 703.401 27.9345 712.007 28.4142 720.325C28.705 725.369 28.3027 730.433 28.0515 735.474C34.3143 732.002 38.881 728.857 46.4781 731.073C57.6564 734.339 62.8939 746.004 50.795 752.422C44.2418 755.8 34.8356 753.381 34.977 744.673C36.5403 745.208 37.0376 745.348 37.5606 747.104C38.1294 749.016 41.2625 752.761 43.2885 750.685C45.627 752.73 49.2777 750.65 51.3696 749.183C64.0793 740.284 43.514 727.921 35.0891 734.397C32.5574 736.344 30.0917 738.053 27.6859 740.144C26.1901 738.728 26.9932 738.763 25.7285 737.468C25.5202 738.95 25.4556 739.961 24.895 741.361L24.5377 740.928C24.3859 739.469 24.4535 738.537 23.3767 737.425C24.5502 726.321 30.8708 709.288 14.3387 705.016L13.0627 704.427Z" fill="var(--fill-0, black)" fill-opacity="0.890196"/>
<path id="Vector_31" d="M1.13969 740.815C3.49564 736.972 6.86057 734.577 11.5243 735.279C20.4885 736.625 22.2627 745.902 11.9077 746.757C9.60936 746.948 8.77172 742.06 11.0088 740.78C12.4256 739.972 14.0606 739.071 15.6372 738.252C8.78034 736.707 1.87384 736.992 4.23087 746.371C8.01038 750.592 14.4074 753.611 19.2019 749.023L19.6038 749.18C21.1186 749.745 20.9863 749.32 22.8218 750.369C22.3827 750.709 22.5901 750.654 22.2667 750.697C20.5471 751.079 18.7949 752.035 17.024 752.449C10.1102 754.06 5.21595 752.449 1.17612 746.807C0.924991 744.346 0.974873 743.304 1.13969 740.815Z" fill="var(--fill-0, black)" fill-opacity="0.901961"/>
<path id="Vector_32" d="M498.678 296.742C504.935 299.051 502.251 312.537 499.638 317.167C499.123 316.844 498.128 316.197 497.828 315.685C495.62 311.923 494.68 299.305 498.678 296.742Z" fill="var(--fill-0, black)" fill-opacity="0.898039"/>
<path id="Vector_33" d="M498.788 494.089C502.903 495.903 502.747 504.396 502.15 507.946C501.627 511.06 501.268 511.809 499.513 514.403H498.881C494.485 510.923 495.534 498.528 498.788 494.089Z" fill="var(--fill-0, black)" fill-opacity="0.886275"/>
<path id="Vector_34" d="M40.1301 69.2528C32.8609 66.8031 33.586 63.3219 39.0414 58.9879C40.081 59.481 41.0452 59.9593 42.1249 60.3647C47.6319 64.5649 46.1719 67.0345 40.1301 69.2528Z" fill="var(--fill-0, black)" fill-opacity="0.894118"/>
<path id="Vector_35" d="M34.977 744.673C40.6684 740.472 48.1804 742.941 43.2885 750.685C41.2625 752.761 38.1294 749.016 37.5606 747.104C37.0376 745.348 36.5403 745.208 34.977 744.673Z" fill="var(--fill-0, black)" fill-opacity="0.905882"/>
<path id="Vector_36" d="M52.6763 495.083C56.4764 499.625 56.2155 509.585 52.2484 514.025L51.8116 513.654C51.3766 507.907 50.8005 502.34 52.2991 496.66C52.4946 495.918 52.4821 496.27 52.2551 495.583L52.6763 495.083Z" fill="var(--fill-0, black)" fill-opacity="0.905882"/>
<path id="Vector_37" d="M48.409 51.7169C53.2146 52.0005 63.5593 61.9319 66.2376 65.9823C61.6878 65.2199 50.0832 55.9284 48.409 51.7169Z" fill="var(--fill-0, black)" fill-opacity="0.878431"/>
<path id="Vector_38" d="M52.9174 316.011L52.0784 316.927C48.2545 316.896 47.5711 300.096 51.0088 297.095C52.4095 296.933 51.8412 296.832 53.0672 297.5L53.0001 297.782C52.7743 298.701 52.5706 298.979 52.3007 299.729C50.7369 304.073 51.1126 311.899 52.9174 316.011Z" fill="var(--fill-0, black)" fill-opacity="0.839216"/>
<path id="Vector_39" d="M485.057 744.709C488.263 745.532 501.904 755.593 502.536 759.093C498.464 759.148 486.898 748.368 485.057 744.709Z" fill="var(--fill-0, black)" fill-opacity="0.870588"/>
<path id="Vector_40" d="M42.4151 22.6945C44.1978 22.269 45.5189 23.2062 46.9622 24.0641C52.3491 27.2658 47.8457 33.0839 44.3507 35.664L43.9579 35.5244C44.33 34.2333 44.1201 34.6917 45.1176 33.6853C46.5897 31.9603 49.1708 29.0913 47.1229 27.0936C44.0897 24.1345 40.4121 27.3799 38.5524 29.254C38.8157 25.313 38.0474 23.3985 42.4151 22.6945Z" fill="var(--fill-0, black)" fill-opacity="0.858824"/>
<path id="Vector_41" d="M52.2484 514.025C52.1076 514.337 52.0741 514.235 51.6134 514.462C47.7755 510.806 47.6721 495.813 52.0202 494.467L52.6763 495.084L52.2551 495.583C52.4821 496.27 52.4946 495.918 52.2992 496.66C50.8005 502.34 51.3766 507.907 51.8116 513.654L52.2484 514.025Z" fill="var(--fill-0, black)" fill-opacity="0.835294"/>
<path id="Vector_42" d="M507.053 22.6012C508.543 22.7005 509.667 22.6469 510.966 23.4163C512.109 24.6778 512.881 27.2427 511.789 28.5903C511.438 28.3785 511.18 28.2162 510.958 27.8508C509.335 25.1766 505.965 25.481 503.749 27.1844C502.669 29.5142 503.601 31.3068 505.516 32.9002C506.176 33.8124 507.166 34.9064 507.088 35.919L506.468 35.7029C503.445 32.5051 502.747 31.5584 501.109 27.4894C502.759 24.9644 504.533 24.1393 507.053 22.6012Z" fill="var(--fill-0, black)" fill-opacity="0.839216"/>
<path id="Vector_43" d="M20.7437 759.526C19.0546 760.423 17.8218 760.927 17.0021 762.643C16.9192 765.963 18.8586 764.625 19.9134 766.654L19.5469 767.032C10.8603 766.864 13.0178 759.249 19.1031 758.27C21.6872 757.852 28.5151 762.081 31.1478 763.462L30.2788 764.196L30.2996 764.851C28.147 762.429 23.7498 760.548 20.7437 759.526Z" fill="var(--fill-0, black)" fill-opacity="0.85098"/>
<path id="Vector_44" d="M42.8442 773.723C46.2901 776.056 54.2733 785.193 45.6071 787.655C42.1932 788.622 39.4167 787.144 38.7053 783.262L38.9824 782.774C41.5363 783.071 42.302 786.235 45.4799 785.728C46.1489 784.596 46.4434 784.229 47.4771 783.418C48.6071 780.168 44.8035 776.216 42.4335 774.203L42.8442 773.723Z" fill="var(--fill-0, black)" fill-opacity="0.835294"/>
<path id="Vector_45" d="M498.678 475.674C502.536 477.246 500.715 486.918 499.743 489.93L498.99 489.579C496.338 486.606 496.845 479.107 498.678 475.674ZM499.127 484.511C499.31 482.818 499.704 480.149 499.072 478.573C498.472 481.05 498.222 481.994 499.127 484.511Z" fill="var(--fill-0, black)" fill-opacity="0.890196"/>
<path id="Vector_46" d="M499.072 478.573C499.704 480.149 499.31 482.818 499.127 484.511C498.222 481.994 498.472 481.05 499.072 478.573Z" fill="var(--fill-0, black)" fill-opacity="0.529412"/>
<path id="Vector_47" d="M531.717 43.3738C536.613 42.8511 539.573 46.2847 536.028 50.3499C533.317 53.4558 526.799 52.1761 523.815 49.7424C522.902 49.1763 522.867 49.158 522.118 48.3961L522.176 47.7886C524.396 47.9263 529.51 54.1323 534.054 49.8759C534.721 46.7661 532.17 46.1758 531.717 43.3738Z" fill="var(--fill-0, black)" fill-opacity="0.803922"/>
<path id="Vector_48" d="M473.125 732.131C473.445 732.189 473.897 732.283 474.198 732.423C478.594 734.51 483.766 733.578 488.123 735.572C489.133 736.032 489.204 736.797 489.469 737.71C484.718 738.583 475.645 736.496 473.125 732.131Z" fill="var(--fill-0, black)" fill-opacity="0.894118"/>
<path id="Vector_49" d="M77.1295 731.92C77.5921 732.291 77.3831 732.092 77.5781 732.856C75.8762 736.172 65.8463 738.123 62.1512 737.862L61.584 737.109C63.6529 732.923 72.2205 735.751 77.1295 731.92Z" fill="var(--fill-0, black)" fill-opacity="0.898039"/>
<path id="Vector_50" d="M81.4195 734.924C82.2082 735.084 82.1684 735.041 82.7715 735.568C82.337 735.743 80.5571 736.481 80.3995 736.781C78.2564 740.862 79.484 744.564 76.1278 748.064L75.5064 748.2L75.098 747.732C74.8312 741.353 75.2057 738.084 81.4195 734.924Z" fill="var(--fill-0, black)" fill-opacity="0.898039"/>
<path id="Vector_51" d="M50.2583 477.906C50.9975 476.521 50.6246 476.728 51.7991 476.119C54.4457 477.703 54.4921 487.702 52.0284 489.727L51.1637 489.762C50.3656 488.822 50.2154 487.819 50.2825 486.578C51.9692 484.456 51.2413 480.25 50.2583 477.906ZM51.8486 488.205C52.0242 485.627 52.5433 480.723 51.5373 478.522C51.503 480.41 51.1754 486.805 51.8486 488.205Z" fill="var(--fill-0, black)" fill-opacity="0.854902"/>
<path id="Vector_52" d="M51.5373 478.522C52.5433 480.723 52.0241 485.627 51.8486 488.205C51.1754 486.805 51.503 480.41 51.5373 478.522Z" fill="var(--fill-0, black)" fill-opacity="0.462745"/>
<path id="Vector_53" d="M474.318 62.6201L475.18 63.1222C478.02 68.9637 474.49 73.1214 469.587 75.8434L468.92 75.6526L468.971 75.1466L471.767 73.1327C472.282 68.6621 472.13 66.5132 474.318 62.6201ZM473.694 72.141C474.069 70.3701 474.923 67.6478 474.092 66.1442C473.694 68.2103 473.109 70.1243 473.694 72.141Z" fill="var(--fill-0, black)" fill-opacity="0.898039"/>
<path id="Vector_54" d="M474.092 66.1442C474.923 67.6478 474.069 70.3701 473.694 72.141C473.109 70.1243 473.694 68.2103 474.092 66.1442Z" fill="var(--fill-0, black)" fill-opacity="0.580392"/>
<path id="Vector_55" d="M63.9412 73.4471C68.0007 73.4038 75.7108 74.0807 77.5118 78.4842L77.2867 79.0136L76.709 78.5759C72.875 75.548 64.1359 77.0715 61.6827 74.5988C62.2284 73.7054 62.6988 73.8236 63.9412 73.4471Z" fill="var(--fill-0, black)" fill-opacity="0.901961"/>
<path id="Vector_56" d="M51.1672 321.198C55.2126 322.27 53.5091 331.603 52.0288 334.322C49.477 332.638 49.6825 324 51.1672 321.198ZM51.5436 331.017C52.3015 329.419 52.5035 324.669 51.4792 323.198C51.3677 325.145 51.1048 329.197 51.5436 331.017Z" fill="var(--fill-0, black)" fill-opacity="0.87451"/>
<path id="Vector_57" d="M51.4792 323.198C52.5035 324.669 52.3015 329.419 51.5436 331.017C51.1048 329.197 51.3677 325.145 51.4792 323.198Z" fill="var(--fill-0, black)" fill-opacity="0.607843"/>
<path id="Vector_58" d="M14.1377 50.7888C13.9721 49.0027 13.7345 46.7985 13.9936 45.0358C14.1905 43.6965 17.3921 43.1647 18.5054 43.5954C19.1419 46.1173 15.7754 48.0984 18.3437 50.7443C19.778 51.4341 21.3554 51.1992 22.9573 51.12L23.8042 51.3732C20.2707 52.7824 17.5545 51.8944 14.1377 50.7888Z" fill="var(--fill-0, black)" fill-opacity="0.882353"/>
<path id="Vector_59" d="M60.8928 763.018C64.0965 760.123 70.1999 762.842 68.5881 768.07C66.9373 765.257 66.1537 769.533 61.9351 767.929C62.6727 767.762 63.2379 767.668 63.9783 767.547L64.02 766.942L62.2307 766.232C61.3788 764.582 62.3361 765.113 61.9347 763.392L60.8928 763.018Z" fill="var(--fill-0, black)" fill-opacity="0.894118"/>
<path id="Vector_60" d="M498.585 321.172C502.318 323.013 500.527 331.313 499.564 334.494C496.595 332.197 496.97 324.504 498.585 321.172Z" fill="var(--fill-0, black)" fill-opacity="0.847059"/>
<path id="Vector_61" d="M469.571 735.7C476.284 736.352 475.976 743.109 475.723 748.083C471.939 747.221 472.473 740.643 471.518 737.784C471.358 737.304 470.004 736.09 469.571 735.7Z" fill="var(--fill-0, black)" fill-opacity="0.886275"/>
<path id="Vector_62" d="M482.124 73.8544C482.795 73.8123 483.466 73.778 484.133 73.7507C485.178 73.7105 487.76 73.6722 488.529 74.378C487.464 75.621 480.556 76.6603 478.336 77.1819C476.3 77.4671 476.226 78.3 474.131 79.0503L473.636 78.7659C474.283 75.3974 479.28 74.2145 482.124 73.8544Z" fill="var(--fill-0, black)" fill-opacity="0.917647"/>
<path id="Vector_63" d="M76.1742 62.6318C78.3699 63.8907 79.9482 73.199 79.2324 75.6116C75.348 71.1364 74.2418 68.7241 76.1742 62.6318Z" fill="var(--fill-0, black)" fill-opacity="0.878431"/>
<path id="Vector_64" d="M336.1 50.4318C336.17 48.3216 335.999 46.4099 337.462 44.8224C339.102 45.0136 337.548 49.0492 338.943 50.4365L339.034 49.6648C340.466 51.6003 341.184 51.1645 343.535 51.191C341.407 51.9756 339.721 50.6179 338.378 51.6759C338.437 52.1757 338.493 52.8386 338.585 53.3173C337.84 54.8641 337.498 55.0303 335.873 55.0713C334.801 54.5204 334.859 54.5536 334.249 53.5022C334.852 52.853 334.889 52.3961 335.117 51.5425C336.005 51.1969 335.63 51.4934 336.1 50.4318Z" fill="var(--fill-0, black)" fill-opacity="0.741176"/>
<path id="Vector_65" d="M53.0672 297.5L54.4266 300.291C53.3676 301.002 53.2018 300.827 53.0064 302.204C52.6358 304.811 52.4365 310.429 53.4873 312.743L54.4921 313.394C54.0038 314.344 53.6308 315.22 52.9174 316.011C51.1126 311.899 50.7369 304.073 52.3007 299.729C52.5706 298.979 52.7743 298.701 53.0001 297.782L53.0672 297.5Z" fill="var(--fill-0, black)" fill-opacity="0.968627"/>
<path id="Vector_66" d="M54.4921 313.394L53.4873 312.743C52.4365 310.429 52.6358 304.811 53.0063 302.204C53.2018 300.827 53.3676 301.002 54.4266 300.291C55.5995 303.171 55.4962 310.434 54.4921 313.394Z" fill="var(--fill-0, black)" fill-opacity="0.866667"/>
<path id="Vector_67" d="M64.7288 20.5137C68.395 22.6228 68.9599 19.8682 69.9912 21.7155L69.8161 22.2791L68.2788 22.647L68.232 22.8344L68.6275 22.8418C69.8574 22.8754 70.1609 22.782 71.1439 23.3975L71.1973 24.0683C69.3363 25.0651 66.8777 24.1333 65.3162 22.9434L64.5357 22.8898C64.1823 23.4914 63.9311 23.9458 63.5184 24.5162C63.1139 22.4656 63.2168 21.9769 64.7288 20.5137Z" fill="var(--fill-0, black)" fill-opacity="0.968627"/>
<path id="Vector_68" d="M498.803 464.044C501.35 466.042 500.527 470.645 499.556 473.31C497.032 470.513 497.953 467.239 498.803 464.044Z" fill="var(--fill-0, black)" fill-opacity="0.905882"/>
<path id="Vector_69" d="M498.674 338.721C501.655 339.682 500.239 344.886 499.794 347.146C496.822 345.844 498.031 341.087 498.674 338.721Z" fill="var(--fill-0, black)" fill-opacity="0.909804"/>
<path id="Vector_70" d="M17.7331 72.0142C16.8721 70.4915 18.6331 69.9219 17.0303 69.4806C15.5044 69.0601 12.8217 68.2154 12.0012 66.8281C13.4084 65.7696 16.6491 67.2131 18.1891 67.5935C18.763 69.1428 18.7836 69.8618 18.0464 71.404C17.9468 71.61 17.8423 71.8133 17.7331 72.0142Z" fill="var(--fill-0, black)" fill-opacity="0.980392"/>
<path id="Vector_71" d="M513.041 176.228C512.99 177.753 513.134 178.982 512.327 180.216L511.882 179.966C511.184 178.333 509.803 173.591 510.93 172.167C512.148 173.045 511.793 172.855 512.487 174.447L513.041 176.228Z" fill="var(--fill-0, black)" fill-opacity="0.945098"/>
<path id="Vector_72" d="M51.4679 464.044C53.8001 465.421 52.7025 470.45 52.1373 472.584L51.6758 472.124C51.1036 469.502 51.2112 466.701 51.4679 464.044Z" fill="var(--fill-0, black)" fill-opacity="0.862745"/>
<path id="Vector_73" d="M24.7584 30.2074C23.0699 26.7727 27.6703 23.3957 30.7427 25.4519C29.9026 26.8691 26.9039 25.2302 25.127 28.4758L25.4921 29.3642L24.7584 30.2074Z" fill="var(--fill-0, black)" fill-opacity="0.678431"/>
<path id="Vector_74" d="M512.487 174.447L513.263 174.34L513.443 174.673C513.918 175.533 514.047 175.989 514.901 176.453C515.108 178.379 515.237 179.321 514.289 181.143L513.45 180.487C513.287 179.071 513.15 177.651 513.041 176.228L512.487 174.447Z" fill="var(--fill-0, black)" fill-opacity="0.878431"/>
<path id="Vector_75" d="M51.7254 339.126C52.4739 339.396 52.4154 339.394 52.9061 340.032C53.49 342.711 53.1093 344.066 52.1622 346.6L51.6044 346.44C51.3368 344.292 51.6029 341.348 51.7254 339.126Z" fill="var(--fill-0, black)" fill-opacity="0.894118"/>
<path id="Vector_76" d="M501.101 139.355L501.717 140.849C500.726 142.296 501.054 145.035 501.116 146.913L501.374 147.149L500.555 148.264C500.481 144.763 498.87 142.255 501.101 139.355Z" fill="var(--fill-0, black)" fill-opacity="0.709804"/>
<path id="Vector_77" d="M56.6937 18.7955L56.9636 18.1609C59.1301 19.9825 58.7427 24.6555 56.9788 26.6431L56.6348 26.1603C57.1711 24.7478 57.5261 20.0375 56.6937 18.7955Z" fill="var(--fill-0, black)" fill-opacity="0.756863"/>
<path id="Vector_78" d="M510.419 679.357L509.265 678.935C508.18 676.778 509.643 676.107 509.987 673.762C511.196 676.376 511.34 676.575 510.419 679.357Z" fill="var(--fill-0, black)" fill-opacity="0.843137"/>
<path id="Vector_79" d="M50.2583 477.906C51.2413 480.25 51.9691 484.456 50.2825 486.578C49.8351 483.894 49.9872 480.606 50.2583 477.906Z" fill="var(--fill-0, black)" fill-opacity="0.976471"/>
<path id="Vector_80" d="M47.0375 205.936L47.4822 203.98C48.5283 204.015 49.1755 205.032 50.1647 205.549C49.4746 206.636 48.9157 207.336 48.6259 208.592C48.1566 207.606 47.6277 206.843 47.0375 205.936Z" fill="var(--fill-0, black)" fill-opacity="0.878431"/>
<path id="Vector_81" d="M22.4732 33.0848C19.9945 32.9849 19.1629 33.4503 16.8234 34.39L16.5245 34.1563L17.1785 33.1202C19.3308 31.7489 22.5483 32.3225 25.139 32.5173C24.3824 32.6159 22.8953 32.6601 22.4732 33.0848Z" fill="var(--fill-0, black)" fill-opacity="0.713725"/>
<path id="Vector_82" d="M56.6937 18.7955C57.5261 20.0375 57.1711 24.7478 56.6348 26.1603C55.5676 23.8068 55.7813 21.147 56.6937 18.7955Z" fill="var(--fill-0, black)" fill-opacity="0.960784"/>
<path id="Vector_83" d="M23.7251 777.89C22.5304 779.068 21.5997 779.622 19.8963 779.524C19.0296 779.115 18.6105 779.033 18.1495 778.202C20.4274 777.71 20.7426 778.927 23.0017 777.07L23.7251 777.89Z" fill="var(--fill-0, black)" fill-opacity="0.796078"/>
<path id="Vector_84" d="M22.9573 51.12L23.3262 50.939C25.3979 49.9118 26.9383 48.3887 28.7043 47.8748L29.1341 48.0578C27.4764 49.8197 26.1057 50.7018 23.8042 51.3732L22.9573 51.12Z" fill="var(--fill-0, black)" fill-opacity="0.760784"/>
<path id="Vector_85" d="M9.18083 707.447C10.7835 705.804 11.0601 705.515 13.0627 704.427L14.3387 705.016C11.3445 706.331 10.5827 707.15 8.43755 709.647C8.88375 708.793 8.95236 708.36 9.18083 707.447Z" fill="var(--fill-0, black)" fill-opacity="0.529412"/>
<path id="Vector_86" d="M505.017 680.192C505.618 678.932 506.359 676.579 507.104 676.002L506.655 676.47L507.318 676.719C507.08 678.986 507.006 679.337 506.019 681.483L505.017 680.192Z" fill="var(--fill-0, black)" fill-opacity="0.713725"/>
<path id="Vector_87" d="M335.117 51.5425C335.045 50.1033 334.788 47.0989 335.587 45.9308C336.236 47.2815 336.083 48.8783 336.1 50.4318C335.63 51.4934 336.005 51.1969 335.117 51.5425Z" fill="var(--fill-0, black)" fill-opacity="0.105882"/>
<path id="Vector_88" d="M510.053 311.01C510.435 312.57 511.001 314.108 510.681 315.624L510.306 315.667C509.713 314.587 509.288 312.785 509.206 311.565C509.359 311.536 509.897 311.12 510.053 311.01Z" fill="var(--fill-0, black)" fill-opacity="0.611765"/>
<path id="Vector_89" d="M96.8339 59.9738C96.0928 57.1714 96.7161 55.7072 97.5567 52.91C97.8079 55.1731 97.1281 56.7633 97.3266 59.0074L96.8339 59.9738Z" fill="var(--fill-0, black)" fill-opacity="0.568627"/>
<path id="Vector_90" d="M62.7425 256.899C61.8297 254.398 62.2764 250.175 62.4219 247.408C62.8268 249.8 62.6988 253.399 62.8307 256.04L62.7425 256.899Z" fill="var(--fill-0, black)" fill-opacity="0.988235"/>
<path id="Vector_91" d="M500.547 119.671L501.272 120.704C500.906 122.056 501.261 123.502 500.582 125.266C500.391 123.466 500.508 121.501 500.547 119.671Z" fill="var(--fill-0, black)" fill-opacity="0.541176"/>
<path id="Vector_92" d="M9.18083 707.447C8.95236 708.36 8.88375 708.793 8.43755 709.647C7.88528 710.513 7.8194 710.782 6.85191 711.145L6.75291 710.669C7.42418 709.089 7.99915 708.633 9.18083 707.447Z" fill="var(--fill-0, black)" fill-opacity="0.647059"/>
<path id="Vector_93" d="M500.418 553.702L501.07 553.94C501.148 555.048 501.358 556.932 500.672 557.736C500.079 556.28 500.297 555.278 500.418 553.702Z" fill="var(--fill-0, black)" fill-opacity="0.6"/>
<path id="Vector_94" d="M519.586 736.777C520.585 736.711 521.014 736.59 521.95 736.231C523.608 737.249 524.961 739.391 526.003 739.57L526.346 737.456L526.736 737.241C527.271 738.228 527.294 738.381 527.559 739.485C527.778 739.176 527.93 738.377 528.02 737.963C528.472 740.885 528.702 743.386 529.853 746.121C529.525 748.555 529.603 748.329 527.302 749.484L527.235 750.974C525.582 756.202 519.61 761.114 519.442 763.15C520.39 763.568 520.281 763.369 521.548 763.084L521.802 763.501C521.33 764.141 521.045 764.442 520.776 765.206C520.456 765.834 520.3 766.076 519.766 766.541L520.456 766.552C517.944 769.556 523.499 773.684 524.091 776.161C522.172 778.054 515.779 772.486 512.023 773.107L511.383 772.677C509.546 773.313 511.227 773.493 508.957 774.285L508.719 774.507L508.266 773.704L507.705 772.759C507.35 772.798 493.459 779.634 492.02 780.324C494.017 783.773 494.403 784.74 495.804 788.455C494.407 792.516 494.044 793.382 491.08 796.433C490.315 795.344 490.21 795.157 489.04 794.545C494.891 789.769 492.979 781.935 486.988 781.354C476.671 780.351 464.395 777.816 454.136 777.948C447.614 778.034 437.129 780.539 437.511 788.517L436.965 789.66C434.746 786.106 436.641 783.929 439.302 781.479C448.273 773.212 462.488 776.013 473.651 776.415C475.968 776.403 476.226 776.622 478.165 775.198C485.471 779.462 492.582 778.596 499.845 774.347C505.044 771.308 506.187 768.721 507.576 763.15C508.29 763.096 508.996 763.029 509.706 762.951C520.858 761.687 526.015 752.628 524.774 742.06C522.89 739.91 521.7 738.697 519.586 736.777ZM491.606 779.723C489.481 779.337 485.369 779.446 483.2 779.661C485.763 780.024 489.426 780.894 491.606 779.723Z" fill="var(--fill-0, black)" fill-opacity="0.886275"/>
<path id="Vector_95" d="M483.2 779.661C485.369 779.446 489.481 779.337 491.606 779.723C489.426 780.894 485.763 780.024 483.2 779.661Z" fill="var(--fill-0, black)" fill-opacity="0.494118"/>
<path id="Vector_96" d="M474.283 16.6101C479.822 12.1941 486.325 9.88345 492.445 15.862C498.343 21.6248 492.808 26.1396 492.656 31.1651L493.182 31.6759C499.611 33.1256 502.193 35.7812 507.361 39.0714L507.833 40.2851L508.508 40.3854L508.641 40.9023C507.697 41.3248 506.671 41.8149 505.7 42.1535C500.02 35.2632 495.023 34.1988 486.649 32.1733C484.082 33.24 481.363 33.7974 478.96 34.932C475.793 36.4245 472.442 39.7062 471.112 42.9463C467.324 52.1648 480.002 59.8216 487.834 56.3338C488.794 55.898 489.8 55.2395 490.67 54.6808C492.133 55.5719 492.89 55.5309 492.812 57.3989L492.312 57.2916C490.686 57.7047 489.044 58.16 487.397 58.5708C477.603 61.0154 466.17 53.8752 468.779 42.8764C469.657 39.1647 471.728 38.0355 473.047 34.8476C472.403 34.4129 462.207 35.5337 460.428 35.5838C451.885 35.8241 447.099 35.0572 439.945 30.4325C428.547 23.0635 444.579 15.0632 446.198 18.2344C431.344 21.7462 437.757 29.9821 446.635 31.7096C454.83 33.3046 483.797 32.2266 489.972 28.3004L490.409 28.0188C492.546 23.7331 494.251 19.2078 489.133 15.8855C487.07 14.5615 484.573 14.0858 482.171 14.5574C479.245 15.1487 475.418 17.9588 476.082 21.3043C477.146 22.5766 476.678 22.4004 478.024 22.6985C479.971 22.0027 480.353 20.4915 482.358 19.0622C484.573 18.7064 486.582 20.057 487.503 22.0491C488.193 26.8823 482.884 27.1055 479.608 26.3187C477.026 25.6988 476.335 25.2111 474.096 23.6983C473.62 20.464 473.616 19.7933 474.283 16.6101Z" fill="var(--fill-0, black)" fill-opacity="0.894118"/>
<path id="Vector_97" d="M528.804 60.172C537.19 57.9568 545.315 56.2257 550 65.2449V69.8255C549.239 71.2612 548.802 72.1324 547.546 73.2521C543.01 77.3071 531.784 76.4063 532.771 68.3855C533.344 63.716 536.254 63.9754 540.123 64.5485C541.364 64.7327 541.602 65.0077 542.167 65.9612C541.949 68.277 537.853 70.2664 536.78 72.7706C537.752 74.4252 542.062 74.2083 543.521 73.3488C549.899 69.5891 548.861 62.89 541.629 60.9639C537.241 59.7943 534.725 60.5239 530.844 62.6606C527.789 72.2057 524.79 84.6472 525.102 94.6842C527.512 97.9356 528.601 103.215 533.555 104.61C537.795 105.803 541.301 103.309 544.859 101.443L544.379 101.941C542.737 103.624 541.071 105.423 538.653 105.794C519.77 108.69 522.964 87.2166 523.081 76.585C522.188 76.8608 521.185 77.2006 520.323 77.5502C509.468 81.9486 497.695 81.2269 493.198 68.913C493.873 66.4415 494.583 63.9805 495.335 61.5308C495.64 62.3302 496.256 64.2582 496.794 64.7912C489.418 77.6173 523.998 87.3645 525.039 62.9236C525.172 61.6935 525.129 60.4411 525.839 59.5891L527.555 60.5352L528.804 60.172Z" fill="var(--fill-0, black)" fill-opacity="0.890196"/>
<path id="Vector_98" d="M522.917 735.751C523.643 725.732 520.132 714.426 528.885 707.142C535.162 701.915 539.831 704.583 544.387 709.823L543.927 709.573C541.734 708.383 537.077 704.052 535.021 705.118C523.569 711.048 523.748 720.961 526.787 732.084C527.267 733.835 527.325 735.704 527.836 737.405C527.895 737.592 527.957 737.78 528.02 737.963C527.93 738.377 527.778 739.176 527.559 739.485C527.294 738.381 527.271 738.228 526.736 737.241L526.346 737.456L526.003 739.57C524.961 739.391 523.608 737.249 521.95 736.231C521.014 736.59 520.585 736.711 519.586 736.777C514.843 733.664 512.35 731.651 506.714 732.856C496.603 735.018 490.292 745.91 502.805 750.865C504.28 751.446 504.795 751.786 506.495 751.633C507.56 750.947 507.26 751.407 507.552 750.303C506.846 748.684 505.902 746.979 505.934 745.255C506.296 744.424 506.468 743.753 507.463 743.406C519.032 739.414 517.971 752.102 508.68 753.494C504.604 754.107 501.58 753.803 498.394 751.325C485.092 740.991 500.492 728.873 512.389 730.906C518.4 731.932 518.315 732.938 522.917 735.751ZM524.872 735.954C525.16 733.937 525.652 729.532 524.443 727.792C524.462 729.361 524.345 734.873 524.872 735.954Z" fill="var(--fill-0, black)" fill-opacity="0.898039"/>
<path id="Vector_99" d="M524.443 727.792C525.652 729.532 525.16 733.937 524.872 735.954C524.345 734.873 524.462 729.361 524.443 727.792Z" fill="var(--fill-0, black)" fill-opacity="0.505882"/>
<path id="Vector_100" d="M512.565 37.4688C514.562 37.481 519.259 36.0174 520.955 34.8659C522.656 35.8937 521.977 35.7839 523.659 35.6693C522.399 37.897 520.249 41.5757 519.801 44.0195C520.62 44.3141 521.189 44.4428 521.841 45.021C520.557 46.1649 519.177 47.4457 517.866 48.5361C524.751 52.8577 524.103 56.4902 528.804 60.172L527.555 60.5352L525.839 59.5891C525.129 60.4411 525.172 61.6935 525.039 62.9236C523.85 56.2234 519.754 51.0143 513.181 48.9278C511.27 48.3204 509.265 48.4078 507.451 47.4937C506.675 45.7139 506.234 44.0156 505.7 42.1535C506.671 41.8149 507.697 41.3248 508.641 40.9023L508.508 40.3854L507.833 40.2851L507.361 39.0714C508.005 38.3561 510.404 36.6012 511.297 35.9142C512.14 36.5093 512.233 36.472 512.565 37.4688Z" fill="var(--fill-0, black)" fill-opacity="0.87451"/>
<path id="Vector_101" d="M493.849 58.2084C493.214 58.542 493.397 58.4421 492.87 58.9559L493.323 59.1428C493.826 58.842 494.333 58.5443 494.836 58.249C495.944 57.5896 496.19 57.2611 497.434 57.2487C497.777 57.819 497.766 57.9817 497.961 58.6446L498.144 58.089L498.749 58.6746C500.41 58.6348 501.764 58.1288 503.371 57.8167C507.67 56.983 516.099 58.5611 516.095 64.2707C516.083 65.4844 515.549 66.6346 514.632 67.4281C512.971 68.8857 510.759 69.0249 508.699 68.4116C502.649 66.6104 508.169 61.9416 507.787 59.3968C502.95 57.6696 499.462 61.3939 496.794 64.7912C496.256 64.2582 495.64 62.3302 495.335 61.5308C495.495 61.2679 495.499 60.9928 495.562 60.6522C494.212 60.7326 493.323 61.6061 492.032 62.4277C491.154 61.3264 491.014 61.2035 489.804 60.4782C491.002 59.4557 491.454 58.597 492.312 57.2916L492.812 57.3989C493.366 58.0301 493.108 57.8596 493.849 58.2084Z" fill="var(--fill-0, black)" fill-opacity="0.890196"/>
<path id="Vector_102" d="M473.651 776.415C467.293 769.533 465.152 758.917 474.798 753.803C478.742 751.7 483.372 751.298 487.62 752.683C492.652 754.294 497.2 758.469 495.359 764.184C493.686 763.334 494.001 762.319 493.689 760.533C493.705 761.418 493.358 762.362 493.311 763.537C493.081 760.189 492.523 758.164 489.754 755.788C487.663 754.025 484.952 753.182 482.233 753.448C471.245 754.571 464.434 767.789 478.165 775.198C476.226 776.622 475.968 776.403 473.651 776.415Z" fill="var(--fill-0, black)" fill-opacity="0.905882"/>
<path id="Vector_103" d="M491.08 796.433C481.886 801.914 468.346 795.188 475.114 786.703C476.401 785.088 478.321 784.105 480.384 784.003C484.281 783.8 486.278 785.821 488.958 788.228C483.626 792.789 480.708 792.887 478.133 786.063C475.559 790.062 475.013 790.87 477.728 794.947C481.316 796.605 485.783 797.432 489.04 794.545C490.21 795.157 490.315 795.344 491.08 796.433ZM485.919 788.451C484.819 786.578 483.111 786.566 481.055 786.145C481.453 788.065 481.09 787.557 482.233 788.704C483.622 789.036 484.511 788.728 485.919 788.451Z" fill="var(--fill-0, black)" fill-opacity="0.913725"/>
<path id="Vector_104" d="M481.055 786.145C483.111 786.566 484.819 786.578 485.919 788.451C484.511 788.728 483.622 789.036 482.233 788.704C481.09 787.557 481.453 788.064 481.055 786.145Z" fill="var(--fill-0, black)" fill-opacity="0.980392"/>
<path id="Vector_105" d="M493.311 763.537C493.358 762.362 493.705 761.418 493.689 760.533C494.001 762.319 493.685 763.334 495.359 764.184C494.247 766.427 493.26 767.606 491.103 769.162C487.713 771.605 481.047 770.243 482.276 765.085C482.713 763.24 485.182 762.339 486.855 761.602C489.145 762.382 490.967 762.936 493.311 763.537Z" fill="var(--fill-0, black)" fill-opacity="0.898039"/>
<path id="Vector_106" d="M483.614 42.1039C487.909 40.545 493.065 40.5009 494.633 45.7342C495.737 49.4124 494.746 52.0009 494.427 55.5722L493.849 58.2084C493.108 57.8596 493.366 58.0301 492.812 57.3989C492.89 55.5309 492.133 55.5719 490.67 54.6808C492.149 52.8432 493.83 50.8809 492.956 48.4565C491.704 47.6973 492.028 47.9529 490.237 48.0957C488.447 46.7594 487.6 47.1652 485.014 46.6814C484.293 45.7318 484.468 46.2452 484.386 45.1178C485.595 45.051 485.627 45.0272 486.637 44.3043C486.052 43.5514 486.223 44.7081 484.562 43.8494L484.527 42.6037L483.614 42.1039Z" fill="var(--fill-0, black)" fill-opacity="0.905882"/>
<path id="Vector_107" d="M522.625 31.5716C523.69 30.4659 524.228 30.042 524.895 28.6388C524.513 25.8554 522.258 27.0386 520.628 25.5463C521.388 24.7191 521.47 24.5151 522.5 24.2125C526.276 25.1788 526.826 29.1569 526.506 32.4419C529.268 32.338 531.994 31.9507 534.268 33.6469C535.193 35.4053 534.686 35.9369 533.633 37.6043L533.11 37.572C532.876 36.2917 532.989 35.9438 533.161 34.6248C531.994 32.0981 529.72 33.2194 527.583 34.0009C526.444 37.0017 524.478 43.1511 521.841 45.021C521.189 44.4428 520.62 44.3141 519.801 44.0195C524.22 42.5167 525.41 36.1349 526.568 32.1381C525.617 33.3295 524.645 34.5067 523.659 35.6693C521.977 35.7839 522.656 35.8937 520.955 34.8659C522.254 34.2325 522.796 34.2556 523.378 33.164C520.998 31.9649 514.995 34.6356 513.017 36.2881L512.565 37.4688C512.233 36.472 512.14 36.5093 511.297 35.9142C514.831 33.4639 518.455 32.3459 522.625 31.5716Z" fill="var(--fill-0, black)" fill-opacity="0.866667"/>
<path id="Vector_108" d="M520.776 765.206C522.172 766.303 522.773 766.72 523.83 768.164C526.054 771.191 526.65 777.663 530.734 778.424C532.556 778.057 532.88 777.445 533.91 775.9C534.038 775.705 534.167 775.506 534.296 775.307L534.698 775.272C534.53 779.357 531.179 779.743 528.144 778.908C526.475 778.451 526.139 778.729 525.02 780.035C520.643 779.786 516.949 778.034 513.053 776.169C511.781 775.561 510.244 774.515 508.957 774.285C511.227 773.493 509.546 773.313 511.383 772.677L512.023 773.107C513.205 776.033 521.79 779.216 524.751 778.342C527.083 775.646 522.812 768.394 520.456 766.552L519.766 766.541C520.3 766.076 520.456 765.834 520.776 765.206Z" fill="var(--fill-0, black)" fill-opacity="0.87451"/>
<path id="Vector_109" d="M541.465 744.709C540.272 748.871 533.941 746.308 532.642 742.98C532.232 741.95 532.271 740.799 532.755 739.805C533.742 737.706 535.981 736.738 537.982 735.95L539.698 736.352C539.792 736.648 539.944 737.085 539.983 737.374L535.747 738.361C538.352 739.781 540.463 740.558 541.906 743.183C540.919 742.863 536.312 741.693 535.431 741.806L534.947 742.387C535.731 745.606 539.612 743.542 541.465 744.709Z" fill="var(--fill-0, black)" fill-opacity="0.905882"/>
<path id="Vector_110" d="M529.853 746.121C530.274 747.654 532.256 749.847 533.66 750.498C538.867 752.913 542.733 750.553 546.279 747.19L546.747 747.572L547.874 746.761C548.853 747.225 548.533 747.042 549.037 748.423C545.081 753.089 538.739 753.924 533.215 752.106C531.054 751.392 529.521 750.923 527.235 750.974L527.302 749.484C529.603 748.329 529.525 748.555 529.853 746.121Z" fill="var(--fill-0, black)" fill-opacity="0.913725"/>
<path id="Vector_111" d="M537.982 735.95C543.564 733.843 547.886 736.445 550 741.747V746.476L549.037 748.423C548.533 747.042 548.853 747.225 547.874 746.761L546.747 747.572L546.279 747.19C550.23 740.319 546.068 738.31 539.983 737.374C539.944 737.085 539.792 736.648 539.698 736.352L537.982 735.95Z" fill="var(--fill-0, black)" fill-opacity="0.901961"/>
<path id="Vector_112" d="M525.823 760.404C528.963 758.578 530.645 758.016 534.307 758.964C536.827 759.62 538.173 761.797 537.292 764.254C536.706 765.885 533.445 767.251 531.823 767.145L531.362 766.646C532.486 765.394 533.964 764.106 534.323 762.557C533.305 759.358 529.662 759.787 527.122 760.611L526.303 760.876L525.823 760.404Z" fill="var(--fill-0, black)" fill-opacity="0.87451"/>
<path id="Vector_113" d="M505.54 775.994L506.035 776.856C504.44 779.08 502.462 781.502 503.804 784.374C506.176 786.637 509.741 784.545 511.718 782.739L512.054 782.431L512.495 782.805C510.478 793.905 495.924 785.778 505.54 775.994Z" fill="var(--fill-0, black)" fill-opacity="0.866667"/>
<path id="Vector_114" d="M494.427 55.5722C496.982 54.5684 498.756 52.5483 501.581 52.6837C502.162 54.362 499.318 56.8121 498.144 58.089L497.961 58.6446C497.766 57.9817 497.777 57.819 497.434 57.2487C496.19 57.2612 495.944 57.5896 494.836 58.249C494.333 58.5443 493.826 58.842 493.323 59.1428L492.87 58.9559C493.397 58.4421 493.214 58.542 493.849 58.2084L494.427 55.5722Z" fill="var(--fill-0, black)" fill-opacity="0.894118"/>
<path id="Vector_115" d="M483.614 42.1039L484.527 42.6037L484.562 43.8494C486.223 44.7081 486.052 43.5513 486.637 44.3043C485.627 45.0272 485.595 45.051 484.386 45.1178C484.468 46.2452 484.293 45.7318 485.014 46.6814C487.6 47.1652 488.447 46.7594 490.237 48.0957C489.504 48.922 488.205 49.2516 487.148 49.318C485.67 49.4163 484.215 48.9138 483.115 47.9244C480.852 45.9031 481.839 43.9056 483.614 42.1039Z" fill="var(--fill-0, black)" fill-opacity="0.866667"/>
<path id="Vector_116" d="M523.659 35.6693C524.645 34.5067 525.617 33.3295 526.568 32.1381C525.41 36.1349 524.22 42.5167 519.801 44.0195C520.249 41.5757 522.399 37.897 523.659 35.6693Z" fill="var(--fill-0, black)" fill-opacity="0.01"/>
<path id="Vector_117" d="M489.804 60.4782C491.013 61.2035 491.154 61.3264 492.032 62.4277C490.584 63.0586 487.21 65.3038 484.858 66.3958C486.524 64.2032 487.99 62.5186 489.804 60.4782Z" fill="var(--fill-0, black)" fill-opacity="0.866667"/>
<path id="Vector_118" d="M541.465 744.709C539.612 743.542 535.731 745.606 534.947 742.387L535.431 741.806C536.312 741.693 540.919 742.863 541.906 743.183L541.465 744.709Z" fill="var(--fill-0, black)" fill-opacity="0.984314"/>
<path id="Vector_119" d="M437.511 788.517C439.649 790.85 443.382 791.806 444.798 793.628C440.905 792.89 440.148 791.576 436.965 789.66L437.511 788.517Z" fill="var(--fill-0, black)" fill-opacity="0.717647"/>
<path id="Vector_120" d="M521.548 763.084C522.239 761.98 524.579 761.024 525.823 760.404L526.303 760.876C524.462 762.237 523.924 762.69 521.802 763.501L521.548 763.084Z" fill="var(--fill-0, black)" fill-opacity="0.643137"/>
<path id="Vector_121" d="M508.266 773.704L508.719 774.507C507.966 775.128 506.636 776.161 506.035 776.856L505.54 775.994C506.101 775.362 507.549 774.277 508.266 773.704Z" fill="var(--fill-0, black)" fill-opacity="0.682353"/>
</g>
</svg>
