<svg width="547" height="796" viewBox="0 0 547 796" fill="none" xmlns="http://www.w3.org/2000/svg">
<g clip-path="url(#clip0_637_2)">
<path d="M37.844 491.611C39.7199 496.952 40.349 503.28 43.2055 509.089C43.3015 511.52 49.0246 515.324 49.229 516.303C51.5136 527.242 57.6818 537.199 59.7367 548.064C60.465 551.919 60.2781 557.104 60.4186 560.767C60.7626 569.085 60.1775 584.409 55.522 591.861C48.6139 602.913 49.7552 601.669 49.7708 614.984L49.7837 638.33L49.7642 684.682C49.7685 690.686 49.7958 708.793 50.8599 714.079C52.1951 714.563 54.775 715.706 55.3878 717.028C54.2909 718.008 52.1171 717.902 50.173 718.647C49.5297 719.954 49.5637 719.404 49.9514 720.664C53.1644 724.031 61.6964 724.429 66.1959 725.151C76.3499 726.782 75.3283 711.539 65.9958 712.397C64.576 712.526 63.6628 713.404 62.1489 713.482L62.4072 713.026C67.8256 709.331 71.1311 712 75.0981 715.901C78.3864 734.456 56.897 726.236 47.4206 724.367C44.5064 723.793 39.4406 723.52 36.3859 724.031C34.2084 724.394 31.8725 726.743 29.4138 726.216C29.1659 720.208 46.454 721.819 48.7629 718.62C47.659 715.846 39.3493 715.308 36.4924 714.68C41.6417 714.496 43.7938 714.344 48.7492 713.466C48.5171 703.896 49.1252 695.778 47.8524 686.184C42.9407 690.07 38.0601 695.239 33.0476 686.383C30.3156 681.557 30.7616 675.093 32.4034 669.892C36.5505 665.671 39.8154 666.272 43.241 670.801C43.5227 673.474 44.0114 676.915 41.5384 678.721C37.4411 678.83 37.3088 672.916 37.0958 670.009C29.2997 676.482 32.7447 683.851 40.209 688.474C41.3492 687.515 43.0604 686.208 43.9178 685.139C52.2123 674.585 47.3208 661.808 36.2236 655.691C22.6637 648.212 20.8016 621.32 29.7614 609.807C33.0037 605.637 37.3221 605.324 42.1574 604.88C52.0594 592.516 48.1559 581.955 47.5677 567.181C47.2701 559.702 44.2575 548.259 36.7838 544.869C34.456 543.792 31.7943 543.695 29.3943 544.6C18.7925 548.684 16.5603 568.063 26.7121 574.609C28.4386 575.725 31.683 574.691 33.1962 573.403C35.6782 571.289 37.3779 568.882 34.4224 566.17C31.7546 563.521 27.962 554.72 35.3596 555.122C35.8412 555.145 37.0451 557.01 37.2125 557.712C38.1974 561.816 39.233 569.845 36.8255 573.727C29.093 586.204 21.1499 576.154 19.0177 567.169C17.266 560.018 18.518 552.461 22.4824 546.258C25.2883 541.779 27.6341 540.464 32.5354 539.387C37.4535 540.917 41.2946 543.156 44.5836 547.374C45.6224 548.704 45.5803 550.257 46.921 550.935L47.5661 550.448C49.9807 545.158 48.6435 529.529 47.109 524.004C44.6843 515.273 37.1157 501.213 37.8116 491.994L37.844 491.611ZM47.4659 636.141C45.104 636.879 44.8231 637.456 42.9204 638.513C36.0866 642.325 28.7562 627.172 36.5123 624.632C38.7373 623.907 39.2323 629.017 39.5459 630.297C40.0518 632.365 39.6633 633.953 41.6558 635.088C48.7274 633.898 50.2986 616.322 44.068 614.832C42.093 616.319 43.0873 618.757 41.3862 620.485C36.2201 618.211 47.8427 608.68 34.8358 610.045C24.0014 616.053 24.1889 633.801 29.7046 643.355C33.8848 650.596 41.2474 653.167 45.991 659.702C46.314 660.158 46.4888 660.213 46.9779 660.427C49.6944 657.977 48.9302 639.614 47.4659 636.141ZM53.5732 584.624C57.4022 576.185 59.4231 543.355 51.1411 532.97C51.0721 532.884 50.4901 532.743 50.4113 532.716C49.8289 546.324 49.6308 559.94 49.8168 573.56C49.8652 576.919 49.8699 584.6 50.6114 587.538L51.2004 587.893C52.5306 587.144 52.8383 586.122 53.5732 584.624ZM58.8177 567.59C58.9051 564.926 59.5351 557.821 58.2502 555.832C58.2931 558.274 57.9748 566.096 58.8177 567.59ZM58.0622 577.691C58.4304 575.303 59.2253 571.621 58.1261 569.522C57.9541 571.425 57.3296 576.181 58.0622 577.691Z" fill="black" fill-opacity="0.886275"/>
<path d="M58.2501 555.832C59.535 557.822 58.905 564.926 58.8176 567.591C57.9747 566.097 58.293 558.274 58.2501 555.832Z" fill="black" fill-opacity="0.498039"/>
<path d="M58.1259 569.521C59.2251 571.62 58.4302 575.303 58.0619 577.691C57.3294 576.181 57.9539 571.425 58.1259 569.521Z" fill="black" fill-opacity="0.462745"/>
<path d="M494.131 713.9C495.036 712.109 495.395 710.938 495.465 708.933C496.206 688.615 495.746 668.187 495.836 647.865L495.883 618.222C495.887 613.42 496.004 607.295 495.578 602.535C495.329 599.777 491.015 593.843 489.657 590.831C488.346 587.932 488.167 587.082 487.321 583.898C483.455 569.346 483.779 554.537 488.101 540.129C489.524 535.385 492.04 530.278 493.729 525.53C494.958 522.062 495.075 518.48 496.612 515.285C496.963 514.711 499.28 514.259 499.659 513.697C503.193 508.461 504.854 502.274 506.278 496.196C506.812 493.909 507.132 491.647 508.065 489.731L508.314 490.383L507.807 490.293L507.733 490.488L508.33 490.94C508.318 500.745 501.078 514.403 498.434 523.958C496.522 530.851 496.608 543.269 497.56 550.28L497.618 550.702C497.498 552.278 497.279 553.28 497.872 554.736C498.559 553.932 498.348 552.048 498.27 550.94C502.198 548.029 503.856 542.474 508.517 540.847C520.172 536.504 527.389 549.789 527.034 559.874C526.757 567.754 525.653 580.11 514.512 579.271C504.792 578.542 506.067 553.542 511.954 554.665C513.284 556.05 513.838 558.223 513.861 560.104C513.9 563.564 511.127 565.289 509.418 567.84L510.503 571.66C521.432 581.971 526.257 565.562 524.877 556.979C523.418 547.893 518.183 543.609 509.184 543.995C496.222 552.422 497.755 570.138 497.014 583.734C496.616 591.092 498.34 600.444 503.91 605.715C508.326 605.664 511.372 605.832 514.778 609.171C519.455 613.755 521.971 622.569 522.045 628.912C522.037 636.922 518.362 647.701 512.246 653.171C505.494 659.206 498.067 661.563 497.931 672.315C497.88 676.337 499.538 687.706 505.896 687.866C508.084 687.92 511.509 682.798 512.691 680.652C512.738 677.558 512.289 671.539 508.771 670.431C508.158 670.528 507.772 670.555 507.187 670.762C506.844 673.107 505.381 673.778 506.465 675.935L507.62 676.357C506.356 678.05 505.506 679.092 503.22 678.483C504.207 676.337 504.281 675.986 504.519 673.719L503.856 673.47L504.304 673.002C503.559 673.579 502.818 675.932 502.217 677.192C501.351 672.557 501.886 668.503 507.261 667.091C508.423 666.775 509.664 666.951 510.698 667.571C517.052 671.398 515.499 689.996 506.52 690.967C502.272 691.428 500.805 688.701 497.735 686.379C496.788 691.947 497.107 706.791 496.909 713.33C501.344 714.344 503.778 714.504 508.345 714.891C505.139 715.71 499.783 715.367 497.895 717.625C498.539 721.429 516.888 721.46 516.194 726.283C514.091 726.349 511.404 724.086 507.491 723.79C499.37 723.169 492.84 725.795 485.07 727.199C479.25 728.253 476.196 728.46 471.39 725.206C465.867 714.785 477.779 707.209 483.4 713.662L482.928 713.775C482.39 713.47 481.84 713.186 481.282 712.924C477.031 710.989 473.664 713.166 472.104 717.286C471.07 720.021 471.846 721.421 473.024 723.86C476.356 724.964 478.786 725.342 482.304 724.937C485.507 724.57 494.377 723.204 495.668 719.791L495.278 718.991C493.351 717.59 491.471 717.735 489.01 717.481C490.71 716.35 492.45 715.082 494.131 713.9ZM497.299 661.122C501.546 655.711 505.67 654.505 510.37 650.643C515.456 645.934 518.948 637.718 519.236 630.937C519.681 620.571 517.403 610.252 505.322 609.636L507.257 609.273L506.77 609.632L506.801 609.011C504.866 608.364 503.754 607.962 501.749 607.642L501.133 608.29L501.211 608.797L503.672 609.655C503.684 610.708 503.692 611.762 503.692 612.815L504.027 613.088C504.636 612.09 504.176 611.645 504.519 610.556C504.733 613.342 505.342 618.515 504.468 621.02L504.183 620.942C503.532 618.929 502.432 614.021 500.318 613.396C496.511 616.709 496.195 632.716 504.012 634.948C506.922 634.097 504.819 628.046 506.859 625.935C508.31 624.433 510.194 625.034 511.544 626.283C513.135 629.096 512.074 634.522 509.742 636.844C505.463 641.1 501.387 636.906 498.005 636.801C496.534 640.359 497.213 656.296 497.299 661.122ZM493.265 586.633C493.924 587.928 494.073 588.88 495.145 589.345C495.411 588.229 495.703 584.643 495.602 583.524C495.099 577.758 497.24 534.979 493.936 533.188C487.937 547.249 486.049 569.136 491.67 583.777C492.005 584.663 492.688 585.876 493.265 586.633ZM516.049 542.477C514.938 541.783 512.952 541.397 511.704 541.873C512.585 542.723 514.918 542.836 516.049 542.477Z" fill="black" fill-opacity="0.886275"/>
<path d="M504.519 610.556C504.175 611.645 504.636 612.09 504.027 613.088L503.692 612.815C503.692 611.762 503.684 610.709 503.672 609.655L501.211 608.797L501.133 608.29L501.749 607.642C503.754 607.962 504.866 608.364 506.801 609.011L506.769 609.632L507.257 609.273L505.322 609.636L504.519 610.556Z" fill="black" fill-opacity="0.941176"/>
<path d="M511.704 541.873C512.952 541.397 514.938 541.783 516.049 542.477C514.918 542.836 512.586 542.723 511.704 541.873Z" fill="black" fill-opacity="0.54902"/>
<path d="M27.9266 77.912C33.2522 79.1687 34.388 80.9391 40.0941 81.2992C53.2891 82.1318 64.5894 71.1775 75.0769 81.8602C75.8203 84.3317 76.2939 86.0994 74.9989 88.539C73.9566 90.5033 70.5723 93.6903 68.3513 93.8905L68.0607 93.5483C70.1854 91.071 74.5612 88.99 74.2402 85.2119C73.9457 81.7455 68.7983 79.8713 66.1084 79.0001C61.7064 80.2977 49.8241 81.2676 50.2847 86.8817L50.7326 87.2468C52.5226 86.7369 54.5502 85.833 56.0656 87.2773C55.2718 88.8429 51.4819 90.3476 49.8163 90.9988L49.7909 164.814L49.7539 188.962C49.7492 193.5 49.6501 198.496 49.9345 202.996C50.1326 206.131 54.3696 210.933 55.7095 213.992C60.1442 224.119 60.8338 234.234 60.528 245.147C60.475 247.033 60.4016 251.412 60.0307 253.041C59.8988 250.399 60.0268 246.8 59.6219 244.408C59.4764 247.175 59.0297 251.398 59.9425 253.899C59.5384 263.132 54.1734 273.446 50.8898 281.88C50.0281 284.093 50.2586 289.297 48.8169 290.609C42.4997 287.839 41.2846 307.855 37.8941 311.077C37.3824 305.45 46.9734 284.419 47.9404 278.294C49.2335 270.1 48.3512 259.952 48.171 251.451C46.4648 254.972 43.6219 259.089 40.9496 261.688C28.4298 273.804 16.7751 254.267 18.4753 242.516C19.5096 235.367 20.0053 231.111 25.7185 226.094C27.9923 225.944 31.0942 225.694 33.0426 227.046C38.8046 230.95 40.1246 242.72 36.9541 248.49C35.7214 250.734 31.3262 249.815 31.0897 246.315C30.7495 241.277 32.5556 241.198 35.3594 237.914C37.7217 234.766 31.1367 227.65 27.8797 229.411C15.4876 236.112 19.56 265.145 36.3222 261.167C41.1193 260.029 46.5916 247.977 47.1455 242.794C48.3937 231.117 50.6787 216.921 45.8258 205.592C46.1157 204.336 46.6746 203.636 47.3647 202.549C46.3755 202.032 45.7283 201.015 44.6822 200.98L44.2375 202.936L43.9617 202.478C43.3583 201.483 42.7025 200.199 41.5538 200.019C34.8454 198.97 31.7735 198.609 27.7999 192.397C23.3214 184.907 23.946 174.627 25.1485 166.236C27.5771 149.292 49.0541 147.251 47.9588 129.848C47.3046 119.46 36.8156 110.559 33.2211 125.135C32.3992 128.468 33.1066 133.449 37.1983 134.42L37.7689 133.97C38.0974 130.936 37.391 128.988 39.4361 127.136C40.6855 126.79 40.8528 126.838 42.1057 127.202C42.8633 127.885 43.7101 128.785 43.5158 129.941C40.1913 149.719 28.135 133.639 31.5483 122.216C32.6516 118.524 32.349 118.084 35.4377 114.826C41.3724 113.445 42.4775 114.072 47.0358 117.77C49.7129 111.589 48.5419 99.0871 48.689 91.7732C45.9741 91.4794 41.505 91.1307 38.9977 90.4612L38.8143 90.1112C41.6536 89.1484 47.2929 88.7173 48.5524 86.8458L48.3672 86.0011C39.8246 81.7529 36.3678 87.8664 27.9266 77.912ZM40.7272 193.443C40.6336 191.377 40.1476 185.99 41.3868 184.516C43.4437 186.18 42.078 189.817 44.3124 190.893C49.8564 187.872 49.6735 171.125 40.368 170.399C38.9157 172.512 40.0758 179.147 36.7528 180.324C31.1557 178.966 33.2656 168.702 37.8785 166.585C43.1219 164.179 44.6642 168.484 47.2874 168.968C49.3646 166.282 49.4001 146.021 46.6095 144.29C42.4654 150.581 40.1963 150.376 34.8399 154.827C23.8806 163.932 22.3998 186.114 34.3282 195.099C37.1577 197.231 39.1194 195.713 40.7272 193.443ZM56.845 250.19C56.9756 251.234 57.1282 252.286 57.2709 253.329C57.5358 248.502 57.9625 230.681 56.7884 227.043L56.4131 227.463L56.8333 227.557L56.3106 227.65L55.9708 229.096C54.8205 222.442 54.2939 220.575 50.7556 214.827C50.2208 218.735 50.0897 223.204 50.0008 227.165C49.6684 241.951 49.4636 257.154 50.3842 271.899L50.7809 272.307C54.5623 270.113 56.5606 254.458 56.845 250.19ZM35.4749 263.995L35.2304 263.58C33.3019 263.492 31.3766 263.343 29.4574 263.134C31.6986 264.605 32.7662 264.837 35.4749 263.995Z" fill="black" fill-opacity="0.886275"/>
<path d="M55.9707 229.096L56.3104 227.65L56.8331 227.557L56.413 227.463L56.7883 227.043C57.9624 230.681 57.5357 248.502 57.2708 253.329C57.128 252.286 56.9755 251.234 56.8449 250.19C56.7856 243.151 56.4938 236.116 55.9707 229.096Z" fill="black" fill-opacity="0.976471"/>
<path d="M29.458 263.134C31.3772 263.343 33.3025 263.492 35.231 263.581L35.4755 263.995C32.7668 264.837 31.6993 264.605 29.458 263.134Z" fill="black" fill-opacity="0.513725"/>
<path d="M478.025 93.2977C479.363 92.8077 480.677 92.1421 482.031 92.327C481.297 93.4389 478.895 94.0198 477.631 93.7986C469.494 92.3606 466.338 82.9836 474.514 78.4861C481.251 74.7802 489.805 79.0686 496.748 80.3541C499.896 80.9366 501.944 81.2865 505.092 81.3825C507.822 81.466 514.325 78.7085 516.232 79.2801C513.591 85.5656 499.635 83.1689 497.212 86.6166C498.964 89.2594 507.448 90.1454 510.962 90.9073C506.835 90.9096 502.708 90.9791 498.581 91.1149C497.017 96.464 496.682 111.327 497.747 116.67C497.708 118.501 497.591 120.466 497.782 122.266C498.461 120.502 498.106 119.056 498.472 117.704C501.238 116.008 503.235 113.441 507.054 114.035C516.244 115.466 515.729 130.407 511.969 136.569C508.181 138.971 507.077 139.865 503.465 136.645C502.451 133.552 500.524 129.038 504.089 126.863C507.393 126.699 508.384 129.471 507.732 132.206C507.432 133.467 507.479 133.584 508.193 134.541C508.946 134.596 509.23 134.683 509.808 134.07C512.924 130.779 513.353 127.269 511.781 123.172C509.769 117.922 506.504 114.799 501.768 119.818C497.47 124.434 497.205 130.444 498.301 136.355C496.069 139.255 497.68 141.763 497.754 145.264C497.162 149.202 496.549 165.823 498.024 168.913C500.407 169.244 508.559 159.415 512.101 173.452C511.247 172.989 511.118 172.533 510.642 171.673L510.463 171.34L509.687 171.447C508.992 169.855 509.347 170.045 508.13 169.166C507.003 170.591 508.384 175.333 509.082 176.966L509.527 177.216C510.334 175.982 510.19 174.753 510.241 173.228C510.35 174.651 510.486 176.071 510.65 177.487L511.489 178.143C510.818 179.23 509.761 180.214 508.505 180.513C504.99 178.321 507.003 171.89 503.036 170.506C497.501 171.689 495.18 190.621 501.8 190.218C502.958 188.635 503.173 185.99 504.124 183.716L504.655 183.568C506.917 186.909 502.022 194.527 505.661 196.401C507.768 196.458 511.84 194.336 513.264 193.063C517.406 189.292 519.232 182.714 519.583 177.586C520.589 162.92 512.53 155.682 501.671 147.995C501.464 147.849 499.155 144.812 498.574 144.148L498.316 143.913C498.254 142.035 497.926 139.296 498.917 137.849L499.022 138.239C500.438 143.393 508.322 148.163 512.187 152.078C523.211 163.241 524.736 178.922 517.309 192.484C513.818 198.859 510.537 199.983 503.598 199.433C501.16 202.843 498.117 207.551 497.571 211.948C496.393 221.459 497.31 230.633 498.226 240.147C499.482 253.211 510.486 273.091 522.415 254.499C527.267 246.938 525.087 237.027 519.481 230.186C517.679 229.391 516.767 228.923 514.797 229.749C511.602 231.09 508.922 234.006 509.972 237.674C512.113 239.863 520.262 248.904 510.373 249.104C505.486 249.203 506.718 236.188 508.084 233.517C509.535 228.812 514.169 224.08 519.606 226.299C523.581 227.921 523.589 230.858 525.34 234.54C530.602 245.619 524.135 270.485 508.189 264.063C504.659 262.641 500.309 255.868 497.329 252.443C497.579 258.89 496.541 274.636 497.844 279.623C500.247 288.824 505.318 297.736 507.253 308.01C507.097 308.119 506.558 308.536 506.406 308.565C505.322 303.952 503.095 297.013 500.657 292.923C499.627 291.195 498.765 290.979 496.935 290.629L496.518 290.551C495.855 289.605 495.48 283.716 494.435 281.534C484.215 260.239 480.33 234.92 490.569 212.865C492.305 209.13 495.492 206.146 495.722 201.698C496.023 195.804 495.867 189.866 495.835 183.94L495.863 155.72L495.804 116.336C495.777 109.654 495.835 103.037 495.496 96.3622C495.141 89.3542 490.675 90.5839 490.281 86.8191C491.892 86.1707 492.871 87.16 495.363 86.9622L495.785 86.4313C495.215 81.704 482.893 79.9796 478.914 79.2258C474.062 80.8351 473.367 81.5764 470.906 86.0755C472.981 90.328 473.851 91.0844 478.025 93.2977ZM492.598 269.082C493.128 270.381 493.354 271.451 494.494 272.157L495.184 271.825C496.159 266.914 496.35 221.132 495.301 216.657L494.731 216.058C486.914 227.4 486.333 257.21 492.598 269.082ZM498.285 202.923L498.73 203.93L499.291 203.843C500.103 202.076 500.481 200.946 499.752 198.982L498.355 198.61L498.305 197.52L498.679 197.189C499.229 196.695 499.635 196.234 500.126 195.685L500.099 194.983L498.546 193.919L497.977 194.033C496.951 195.955 497.462 200.077 497.598 202.401C498.031 202.91 497.79 202.831 498.285 202.923ZM510.311 197.918C508.489 197.18 505.431 197.495 503.414 197.663C505.965 198.136 507.826 198.708 510.311 197.918Z" fill="black" fill-opacity="0.882353"/>
<path d="M498.285 202.923C497.79 202.83 498.032 202.91 497.599 202.401C497.462 200.077 496.951 195.955 497.977 194.032L498.547 193.919L500.099 194.983L500.126 195.685C499.635 196.234 499.229 196.695 498.679 197.189L498.305 197.52L498.355 198.61C498.359 199.992 498.406 201.562 498.285 202.923Z" fill="black" fill-opacity="0.670588"/>
<path d="M498.355 198.61L499.752 198.982C500.481 200.946 500.103 202.076 499.292 203.842L498.73 203.93L498.285 202.923C498.406 201.563 498.359 199.992 498.355 198.61Z" fill="black" fill-opacity="0.964706"/>
<path d="M503.415 197.663C505.432 197.495 508.49 197.18 510.312 197.918C507.827 198.708 505.966 198.136 503.415 197.663Z" fill="black" fill-opacity="0.458824"/>
<path d="M453.81 731.409C454.067 731.393 454.329 731.381 454.586 731.378C459.891 731.264 461.607 732.267 465.247 735.825C466.046 746.811 461.498 750.046 460.293 760.583C459.856 764.399 463.136 767.122 463.148 769.451L462.348 769.896C459.86 769.361 457.863 765.113 456.876 762.947C437.836 763.911 417.607 762.386 398.435 762.854C389.51 763.068 379.05 763.182 370.207 762.471C370.396 766.279 372.057 771.928 369.238 774.96C362.418 782.298 348.26 779.782 344.691 770.251C344.04 768.507 344.602 764.208 343.444 763.158C340.793 762.44 338.35 763.42 335.782 764.227L333.76 766.833C326.447 759.522 318.885 761.044 308.615 759.105C314.993 758.367 324.408 758.652 329.932 756.381C330.682 754.782 330.941 753.849 332.508 753.116C334.443 753.007 335.823 753.998 337.599 754.903C346.869 755.351 351.672 753.947 360.46 752.121C364.122 751.36 370.707 753.163 374.64 752.047C377.464 751.224 378.97 748.711 382.102 748.438C387.938 747.923 392.288 752.784 386.93 757.486C385.392 757.872 385.884 757.977 384.586 757.501C383.956 756.124 384.057 756.725 384.202 755.219C385.064 754.134 385.369 754.372 386.984 754.017C387.728 753.225 387.525 753.611 387.541 752.281C384.235 747.361 373.935 751.817 378.651 758.371C379.785 759.947 381.588 760.408 383.278 760.692C394.145 762.518 395.065 751.614 401.72 746.417C409.275 740.76 419.745 742.325 425.346 749.827C425.44 751.349 425.319 753.147 426.099 754.271C429.27 755.453 444.21 755.554 447.912 754.126C449.363 753.565 449.363 748.567 452.796 748.739C453.638 750.65 451.239 752.749 453.158 754.829C458.011 755.8 460.414 746.495 461.701 743.261C465.742 733.129 451.762 729.517 447.276 736.937C446.289 738.568 447.475 740.776 448.138 742.286L447.42 742.5C446.535 741.626 446.547 741.584 446.281 740.292C445.025 734.175 448.286 732.236 453.81 731.409ZM368.096 752.94C365.87 752.503 361.783 752.683 359.523 752.964C354.226 754.076 351.24 755.87 348.081 760.427C342.685 768.203 347.808 776.7 356.605 777.87C363.611 778.826 371.622 774.964 369.443 766.587C368.076 761.574 360.144 765.476 357.875 764.621C357.487 763.345 357.509 763.884 357.971 762.526C360.153 760.458 373.706 760.923 377.367 761.028C377.872 761.044 378.378 761.067 378.883 761.098C377.182 759.276 376.898 758.8 375.943 756.463C372.909 754.294 371.799 753.545 368.096 752.94ZM413.683 750.053C414.128 751.317 414.385 751.633 413.984 752.816C411.737 754.778 409.026 753.35 408.304 756.104C408.862 758.082 409.782 758.75 411.331 760.123C428.451 763.658 427.164 743.468 409.615 744.642C401.938 745.93 397.109 754.739 393.977 761.032C398.248 761.012 403.124 760.88 407.337 761.102C406.845 755.582 405.636 749.129 413.683 750.053ZM335.458 762.257C335.002 759.69 335.98 758.753 335.414 755.98L334.647 755.531C334.478 757.45 333.982 761.289 334.942 762.869L335.458 762.257ZM431.572 757.528C428.787 757.7 426.169 757.474 424.133 759.362C425.241 761.836 439.72 760.899 442.369 760.821C444.444 760.661 446.554 760.622 448.478 759.842L448.766 758.851C445.228 756.873 435.636 757.091 431.572 757.528ZM412.907 751.513L410.071 751.583L409.673 752.035L409.954 752.394C411.226 752.468 411.901 752.726 412.891 752.199L412.907 751.513ZM332.388 756.085C332.31 757.883 332.086 760.56 332.423 762.241C332.721 762.393 332.852 762.542 333.071 762.495C333.24 760.848 333.788 757.263 332.388 756.085ZM452.78 757.251C451.348 758.075 451.243 757.829 450.572 759.159C451.38 760.634 453.053 760.802 454.652 760.997C456.353 760.154 455.963 760.622 456.774 759.265C456.162 757.333 454.633 757.361 452.78 757.251ZM344.35 760.65C345.738 760.135 346.148 760.135 346.889 758.968C345.943 756.655 340.212 757.345 338.125 757.544C336.637 758.258 336.853 757.887 336.125 759.089C337.449 761.165 342.15 761.016 344.35 760.65Z" fill="black" fill-opacity="0.901961"/>
<path d="M334.646 755.531L335.414 755.98C335.98 758.754 335.001 759.69 335.458 762.257L334.941 762.87C333.982 761.29 334.477 757.451 334.646 755.531Z" fill="black" fill-opacity="0.756863"/>
<path d="M332.388 756.085C333.787 757.263 333.239 760.849 333.07 762.495C332.851 762.542 332.721 762.393 332.422 762.241C332.086 760.56 332.31 757.883 332.388 756.085Z" fill="black" fill-opacity="0.0666667"/>
<path d="M412.907 751.513L412.891 752.199C411.9 752.726 411.225 752.469 409.954 752.394L409.673 752.036L410.071 751.583L412.907 751.513Z" fill="black" fill-opacity="0.588235"/>
<path d="M359.523 752.964C361.783 752.683 365.87 752.503 368.096 752.94C365.248 753.186 362.374 753.077 359.523 752.964Z" fill="black" fill-opacity="0.584314"/>
<path d="M87.6115 731.358C87.8245 731.343 88.0379 731.331 88.2512 731.323C95.0155 731.101 104.608 735.322 97.4109 742.68L97.1722 742.59C97.854 741.319 98.8588 739.832 98.6923 738.369C97.7748 729.864 81.3599 731.905 83.3383 740.971C84.2171 744.998 86.7857 751.564 89.9227 754.4C90.6252 755.036 91.6917 755.048 92.5565 754.852C92.9614 753.335 92.4554 749.082 92.3544 747.241C97.799 752.324 95.7188 755.328 104.929 755.126C109.641 755.02 114.611 755.126 119.42 754.817C121.316 745.341 126.421 742.38 136.279 743.308C141.871 743.835 146.831 748.271 149.338 753.218C152.874 760.193 163.291 764.984 167.866 756.429C170.144 752.094 162.359 748.517 158.505 750.939C156.95 754.295 160.403 753.943 161.191 756.928C160.357 757.868 160.664 757.572 159.205 757.911C158.634 757.732 157.849 757.607 157.558 757.162C152.884 751.076 161.527 745.985 165.95 749.418C172.987 754.876 177.659 750.982 185.228 752.075C190.814 752.878 195.019 754.607 201.185 755.016C203.553 755.048 207.795 755.582 209.728 754.107C209.816 754.041 209.901 753.967 209.993 753.904C213.028 751.79 213.937 753.982 215.919 755.933C218.931 758.898 231.387 758.535 236.036 759.327C230.052 760.435 223.272 760.548 217.364 762.355C216.628 762.581 213.189 765.449 211.961 766.194C210.537 765.718 210.56 765.332 209.489 764.064C207.046 763.408 202.768 761.832 200.859 764.083C200.874 764.064 200.482 768.421 200.48 768.714C200.362 782.381 171.482 783.29 174.837 767.696C175.173 766.131 175.326 764.368 175.523 762.764C165.24 763.127 154.897 762.823 144.613 762.858C126.219 762.96 107.824 762.948 89.43 762.827C87.8744 765.211 84.4364 771.078 81.2105 769.592C92.1044 759.784 77.0855 748.536 81.482 734.749C83.8668 732.544 84.4867 732.115 87.6115 731.358ZM180.365 776.536C197.022 784.495 208.263 762.171 190.211 754.435C186.053 752.656 180.735 752.746 176.284 753.151C170.178 754.739 170.693 754.263 168.383 759.749C171.094 762.082 185.121 759.612 188.034 763.049C188.109 764.231 188.196 763.767 187.403 764.887C185.146 765.495 182.994 763.385 181.887 763.51C173.334 764.481 174.188 772.721 180.365 776.536ZM139.015 755.348L137.783 761.223L138.293 761.169C140.81 760.923 149.905 761.325 150.987 760.857C151.117 759.378 149.795 758.161 149.222 756.725C147.105 751.439 141.175 745.161 135.228 744.682C134.177 744.6 133.122 744.588 132.07 744.65C125.118 745.595 117.179 752.192 124.586 758.98C128.619 762.679 136.798 760.818 137.374 755.726C135.658 752.828 131.308 754.486 131.091 751.716C131.891 750.522 132.005 750.374 133.208 749.593C134.448 749.453 134.617 749.59 135.838 750.011C137.996 751.759 138.217 752.715 139.015 755.348ZM117.593 760.814C118.901 760.646 120.749 760.521 121.897 759.998L122.09 759.011C118.117 756.924 106.919 757.15 102.302 757.517C100.373 757.646 98.8343 757.556 97.2439 758.633L96.9143 759.203C98.9037 761.138 108.375 760.989 111.329 760.946C113.417 760.915 115.505 760.872 117.593 760.814ZM206.589 760.849C207.846 760.525 208.675 760.474 209.502 759.518L209.557 758.836C208.37 757.587 205.873 757.373 204.228 757.342C203.106 757.326 201.984 757.338 200.863 757.381C199.463 757.821 199.158 757.665 198.31 758.668C199.136 760.81 204.556 761.009 206.589 760.849ZM93.005 760.997C94.3414 760.135 94.1827 760.509 94.7631 759.273C94.1011 757.338 92.2854 757.283 90.431 757.217C89.1422 758.212 89.1566 757.888 88.662 759.179C89.5599 760.974 91.1725 760.845 93.005 760.997Z" fill="black" fill-opacity="0.890196"/>
<path d="M213.784 756.818C214.609 758.075 214.244 761.254 214.162 762.877L213.908 762.834C213.614 761.609 213.763 758.254 213.784 756.818Z" fill="black"/>
<path d="M175.869 42.2313C174.92 37.8828 173.361 33.67 176.619 29.9085C181.632 24.1214 191.247 24.3002 196.797 29.2128C201.005 32.9372 201.196 37.0487 201.551 42.2262C203.835 42.2968 206.001 42.1923 208.277 42.1006C214.359 35.2293 213.26 41.7967 217.954 43.0525C223.498 44.5354 229.848 44.2639 235.661 45.5357C229.672 46.2325 223.055 47.3772 216.999 48.2503C215.636 49.4933 214.868 50.4382 213.71 51.8649C210.861 52.6191 210.118 50.7089 207.564 49.7426C205.593 48.9962 204.031 49.2112 202.145 49.1332C195.93 48.8753 191.861 51.8868 186.073 52.8512C181.426 53.6623 176.452 52.6409 171.84 53.5726C167.09 54.5319 155.442 61.7358 156.645 50.368C156.75 49.37 158.866 47.346 159.823 46.8052L160.857 47.1068C161.726 48.2761 161.569 47.7353 161.586 49.1199C160.488 50.2154 160 49.8678 158.085 50.2236L157.534 51.032C157.58 52.138 157.583 52.7267 158.568 53.5363C164.736 58.6038 172.842 50.4561 164.975 45.4339C163.377 44.4207 161.515 43.9038 159.624 43.9487C151.724 44.148 149.75 53.3646 144.364 57.8067C138.142 62.9374 130.657 62.8301 123.904 58.6342C120.609 56.5871 119.644 53.6596 118.903 49.9946C112.729 49.0727 105.483 49.3829 99.2136 49.1765C96.2846 49.0797 96.6524 53.656 94.5269 56.0074C94.3284 53.7633 95.0083 52.1731 94.7571 49.91C93.9165 52.7072 93.2931 54.1714 94.0343 56.9738L93.1613 57.2394L92.4736 56.7487C91.8748 54.0473 93.8439 51.0909 92.1534 49.3189C89.5563 48.9206 88.1602 51.3332 87.1842 53.4859C85.3431 57.5473 82.8404 63.6654 83.7832 68.1847C84.1897 70.1346 89.1163 71.7978 90.7425 72.3963C93.9258 71.4049 98.9246 70.1912 98.3859 65.9828C98.1565 64.1925 96.7254 62.9733 95.5758 61.577C99.4851 61.403 100.634 67.1033 98.8392 70.0051C95.9585 74.663 87.5977 74.4749 83.4009 71.6511C74.3677 65.5732 86.9892 52.0194 85.2202 44.1437L85.1563 43.866C84.5516 41.1752 81.6234 35.4747 81.8547 34.4738C84.0075 34.6015 86.7017 38.9795 88.3537 40.5732C91.356 43.4692 94.729 42.3409 98.6714 42.2683C103.665 42.2153 108.658 42.2165 113.652 42.2715C134.391 42.4993 155.131 42.486 175.869 42.2313ZM171.289 49.1948C175.512 52.3943 179.715 52.7958 184.849 52.0514C204.381 49.2202 205.49 25.8484 183.12 27.1492C179.998 28.7102 177.724 29.654 176.145 33.2669C174.486 37.0631 178.56 43.3564 182.872 41.815C183.537 41.5774 184.273 40.21 184.746 39.5561C186.491 39.3755 186.817 39.7629 187.84 41.1194C187.236 44.8542 170.099 42.1888 166.722 43.3092L166.645 43.7555C167.872 45.2931 169.868 47.9694 171.289 49.1948ZM212.381 41.9886C212.106 43.8738 211.228 47.8539 213.1 49.1308C213.378 46.9539 213.699 44.7231 213.086 42.5793L212.381 41.9886ZM90.7577 43.0077C89.4014 43.7376 89.2251 43.8363 88.5343 45.201C88.3646 48.4563 91.2316 48.2148 93.5611 48.104C94.5285 47.5715 94.2203 47.7552 94.7801 46.5302C94.5476 44.6099 94.8207 45.3551 93.6247 43.7157C92.3488 43.1247 92.1881 43.152 90.7577 43.0077ZM203.107 43.1793C201.217 43.8983 198.126 44.9927 198.903 47.4572C200.246 48.4957 202.046 48.2097 203.84 48.1844C206.336 48.2152 209.401 48.6845 209.617 45.3879C208.015 42.7463 205.836 43.0151 203.107 43.1793ZM98.0407 48.0182C104.152 48.1832 111.93 48.3069 118.027 47.8727C119.722 47.4954 121.434 46.6223 122.484 45.2033C121.593 42.2223 104.889 43.0599 101.864 43.2047C100.367 43.4114 98.9203 43.4821 97.6623 44.3158C96.6005 45.9286 97.1166 46.3925 98.0407 48.0182ZM139.131 50.153C137.689 53.3287 134.794 57.2274 131.214 53.8936C131.327 51.1143 136.113 51.6125 137.061 47.9772C136.812 46.5676 136.367 46.1151 135.159 45.2346C133.387 43.9451 131.168 43.4267 129.008 43.7973C123.263 44.7461 121.022 49.6696 122.703 55.0305C134.849 68.2128 146.545 55.4565 152.076 43.399C147.297 43.079 142.506 42.9889 137.718 43.129C138.166 45.2884 138.814 48.0182 139.131 50.153Z" fill="black" fill-opacity="0.886275"/>
<path d="M212.381 41.9888L213.086 42.5794C213.699 44.7232 213.379 46.954 213.1 49.131C211.228 47.8541 212.106 43.8739 212.381 41.9888Z" fill="black" fill-opacity="0.0313725"/>
<path d="M344.092 40.0921C344.531 35.2273 344.986 32.2533 348.921 28.9457C354.478 24.2746 364.243 24.2239 368.997 30.0709C371.677 33.3672 370.779 37.2465 370.298 41.0741L370.152 42.2231C383.029 42.454 395.322 42.1716 408.03 42.2991C417.139 42.4131 426.251 42.4029 435.359 42.2691C442.45 42.2016 450.115 42.5625 456.98 41.0101C458.954 37.4193 460.202 36.0776 463.803 34.0461C457.897 48.3502 461.806 50.3641 465.632 64.153C467.508 70.9032 456.083 75.5829 450.252 72.4953C444.783 69.5994 443.894 64.0391 449.585 61.3807C449.355 62.6647 447.365 64.8963 446.472 66.3004C447.65 68.9716 448.555 70.4814 451.508 71.6452C452.428 72.0018 453.364 72.3233 454.308 72.6096C462.578 69.8951 463.615 66.0897 460.511 58.1453C459.496 55.5556 456.286 48.4356 452.717 49.3372C451.89 51.5208 453.758 54.9985 452.931 56.8052C449.854 57.1286 448.613 51.4564 448.208 49.1261C445.052 49.1823 428.934 48.6166 426.294 51.0285C425.151 52.0717 423.778 59.3536 420.212 60.0172C414.56 62.5133 406.388 62.2621 401.462 58.2912C395.17 53.2448 393.754 42.8235 383.571 44.1429C382.175 44.3236 379.573 45.6524 378.846 46.8532C375.375 52.5878 378.637 53.9654 383.399 55.1655C385.003 54.5022 386.541 54.0547 387.626 52.7267C388.394 50.0668 385.341 50.7062 384.296 48.2874C385.801 45.8611 389.159 47.7915 389.459 50.2439C389.923 54.0766 387.372 56.8036 383.724 57.1337C379.81 57.4872 377.961 53.6389 374.716 52.3889C370.792 51.7791 368.566 53.8523 363.528 53.3607C353.939 52.4255 345.631 46.506 335.785 50.3172C335.693 49.8385 335.637 49.1757 335.577 48.6759C336.921 47.6179 338.607 48.9756 340.735 48.191L342.843 48.1816C344.732 48.1766 345.394 48.3065 346.28 46.5809L345.942 45.6122C343.782 43.42 339.919 42.3584 337.088 43.7797C336.064 45.0875 336.369 44.759 336.234 46.6648L336.143 47.4365C334.748 46.0491 336.302 42.0136 334.662 41.8224C333.199 43.4099 333.37 45.3215 333.3 47.4318C333.283 45.8783 333.436 44.2814 332.786 42.9308C331.988 44.0988 332.245 47.1033 332.317 48.5425C332.089 49.3961 332.052 49.853 331.449 50.5022C325.167 46.4877 317.757 47.2094 310.355 45.3087C317.518 44.4152 322.818 43.9533 329.966 42.6226C330.613 41.1853 330.838 40.2896 332.102 39.3778C334.687 38.7797 335.796 40.4522 337.656 42.1427C339.324 42.2586 341.067 42.5707 342.52 41.808L344.092 40.0921ZM422.81 48.2733C421.414 46.0874 420.513 44.8222 417.79 44.2042C414.708 43.5058 409.064 45.0859 408.37 48.5121C408.549 49.4835 408.518 49.7195 409.204 50.4448C410.804 51.0222 413.152 51.7241 414.369 52.793L414.669 53.5491C413.932 54.67 414.268 54.297 412.984 54.9427C404.957 54.8128 406.611 48.7536 407.543 43.0872C404.617 43.097 400.596 42.9963 397.764 43.1602C396.336 43.4204 394.709 43.4021 394.011 44.2943C404.29 70.7062 429.391 59.0107 422.81 48.2733ZM442.673 48.1457L448.122 48.0053C448.286 46.5548 448.613 45.3383 448.001 44.0832C445.282 42.7829 433.323 42.9721 430.077 43.2117C428.092 43.3697 425.205 43.4169 423.485 44.2397L423.114 44.8385C425.018 49.4067 438.456 48.1754 442.673 48.1457ZM455.233 48.2561C456.77 47.5933 456.898 46.9223 456.664 45.2579C455.354 43.1758 455.342 43.0603 452.69 43.0349C451.59 43.8975 451.055 44.1445 450.587 45.4577C450.763 48.2257 453.029 48.2433 455.233 48.2561ZM346.44 42.9495C350.591 48.3447 354.312 51.1646 361.257 52.0584C368.225 52.955 372.997 51.4123 377.07 45.7897C378.037 44.5284 378.224 44.7348 378.212 43.4957C375.936 41.8778 359.754 44.8826 357.279 41.3979C357.285 40.2217 357.32 40.5548 358.17 39.3899C360.237 38.6943 360.763 39.6154 362.309 40.9107C366.25 44.2124 370.587 38.2554 369.391 34.2404C367.416 27.6085 362.178 26.8966 356.269 27.1348C347.302 29.0021 345.082 34.4957 346.44 42.9495ZM413.214 53.1122C411.919 52.6257 409.778 52.2254 408.378 52.0654C409.829 53.4512 411.486 54.7492 413.214 53.1122Z" fill="black" fill-opacity="0.890196"/>
<path d="M408.378 52.0654C409.778 52.2254 411.92 52.6257 413.215 53.1122C411.487 54.7492 409.829 53.4512 408.378 52.0654Z" fill="black" fill-opacity="0.576471"/>
<path d="M54.1634 15.1608C59.7211 8.06336 69.5701 5.34376 74.5224 16.2819C76.4345 20.5052 70.2562 24.2099 66.6718 23.6222C63.9476 23.613 62.7945 23.1311 60.7182 21.5161C61.1309 20.9457 61.3821 20.4913 61.7355 19.8897L62.516 19.9433C64.0775 21.1332 66.5361 22.065 68.3971 21.0682L68.3437 20.3974C67.3607 19.7819 67.0572 19.8753 65.8273 19.8417L65.4318 19.8343L65.4786 19.6469L67.0159 19.279L67.191 18.7154C66.1597 16.8681 65.5948 19.6227 61.9286 17.5136C66.2232 13.2556 69.8891 21.2359 72.5623 19.8022C73.3198 15.9552 71.2115 13.9317 68.3971 11.9975C58.1854 10.5813 52.4927 16.0969 58.3462 25.6094C67.0432 29.4093 95.4571 30.8284 104.871 27.6633C113.793 24.6635 112.893 16.2529 101.216 15.1808C102.007 13.2607 105.822 14.893 107.188 15.5598C120.213 21.9167 106.122 30.024 98.6775 31.8257C91.6547 33.5254 82.9569 32.3919 75.7577 31.6882L75.5331 32.3164C76.9666 34.8813 78.9193 37.0291 79.6187 39.9676C82.7884 53.283 66.6699 60.0507 56.6146 53.4258C55.609 52.7637 54.1997 51.1134 53.3673 50.2259C52.8216 46.7544 52.2349 44.5521 54.3713 41.4271C57.1112 37.4196 66.1191 35.5928 66.3496 42.4692C66.5158 47.4169 58.7038 45.4471 55.8314 45.1915C54.8765 46.7856 55.7885 48.4675 56.3837 50.1291C59.4391 52.8402 62.1802 54.4846 66.4916 54.1932C69.7569 53.9505 72.7928 52.4235 74.9351 49.9469C76.8866 47.6958 77.9499 44.9965 77.6578 42.003C77.5731 41.2051 77.4624 40.4104 77.3247 39.6204C72.583 33.8293 68.9682 30.4761 62.6693 30.0549C53.5413 29.2635 42.7936 35.0044 40.7138 44.4347C40.6443 44.7499 36.3251 45.3889 35.7787 45.5731C18.8732 51.2683 19.0716 73.1097 38.0043 75.1763C41.4842 75.6402 45.4957 74.3375 48.0233 72.0829C49.5309 70.7381 53.2725 66.39 52.8266 64.4752C51.5437 58.9684 44.3052 53.8206 39.3247 57.3646C38.245 56.9592 37.2808 56.4809 36.2412 55.9878C39.4659 54.9403 40.4173 54.4791 43.7165 54.6289C51.7403 54.9937 57.614 62.3977 53.3326 69.8365C48.6026 78.0551 36.0828 79.3574 28.5628 74.5002C26.8811 73.414 25.8721 72.8479 24.4763 71.4399C25.4387 79.3898 27.4312 91.6607 22.1445 98.327C19.5776 101.563 16.9878 102.606 13.3789 104.212C11.098 103.441 6.91893 102.254 5.54432 100.374L5.5584 99.5871C6.24734 99.6004 10.1719 102.009 12.8363 102.685C16.2084 101.265 20.7391 98.0972 21.8506 93.9707C24.2791 84.2356 21.2671 71.4591 18.4446 62.0166C16.691 56.1497 8.94929 56.223 4.46815 58.3719C-5.32973 63.0696 7.74915 76.9748 11.9843 68.8795C11.1475 67.1223 5.32787 66.5535 7.06532 62.9623C8.85422 59.2649 13.969 60.9706 15.3889 64.5934C13.8489 64.213 10.6082 62.7695 9.20096 63.828C10.0215 65.2153 12.7042 66.06 14.2301 66.4805C15.8329 66.9218 14.0719 67.4914 14.9329 69.0141C11.5452 74.7479 -1.25678 73.0746 -1.81022 66.5648C-2.91755 53.5405 11.0984 54.524 19.7544 57.3771C24.7614 51.7774 22.6159 51.0861 30.3631 45.5372C26.2196 41.9448 24.5255 40.3496 22.2539 35.1597C21.6031 33.6729 20.5992 31.3932 19.673 30.0847C20.0951 29.66 21.5822 29.6158 22.3388 29.5172L22.7778 28.6848L21.9582 27.2073L22.692 26.3641C26.8857 29.9267 29.4022 28.8385 34.1888 30.9444C35.9122 31.7026 38.4104 34.4074 40.5117 35.2655C42.7909 36.1962 46.0359 31.847 48.2652 31.0018C50.9473 29.9849 53.5654 29.3883 56.2483 28.2286L56.4641 27.0724C56.1064 25.4806 55.3009 24.852 54.1786 23.643C55.9425 21.6554 56.3299 16.9824 54.1634 15.1608ZM36.4456 34.5222C33.8408 30.6882 28.0694 30.5581 23.521 29.3291C25.6176 31.7048 33.2784 34.7225 36.4456 34.5222ZM28.3612 41.0101C28.0442 38.3177 24.7846 31.1101 21.9144 30.7086C22.8279 33.7808 24.8161 38.3599 27.0888 40.6398C27.5778 40.8095 27.8591 40.9535 28.3612 41.0101Z" fill="black" fill-opacity="0.890196"/>
<path d="M23.5215 29.3291C28.0699 30.5581 33.8412 30.6883 36.4461 34.5222C33.2789 34.7225 25.6181 31.7048 23.5215 29.3291Z" fill="black" fill-opacity="0.01"/>
<path d="M45.0792 756.748C48.8313 750.237 57.3395 744.568 63.9508 741.065C61.8214 743.854 59.3429 746.601 56.5785 748.778L56.6343 749.387C59.1713 750.471 63.0482 748.61 65.655 748.688C70.8605 748.833 77.1723 751.817 79.1339 756.951C81.6788 763.611 78.6733 768.577 74.3013 773.415C86.7052 772.721 99.0361 770.341 109.767 778.686C116.977 784.292 107.308 790.823 103.807 790.109C106.616 788.666 112.859 786.27 110.442 782.283C106.896 776.435 97.4404 774.738 91.1228 774.866C82.3181 775.576 72.5768 777.219 63.6863 778.171C62.224 778.331 60.2307 778.76 58.8522 779.185C56.9338 781.46 56.002 782.677 56.0398 785.896C56.1673 796.659 76.5142 795.352 71.6442 785.115C68.8439 784.015 66.1976 791.295 60.7499 787.105C58.8557 782.213 66.9809 779.661 70.206 781.468C73.0676 783.067 76.6663 787.39 74.0111 790.671C69.711 796.035 62.7755 796.297 56.9842 793.655C52.2393 786.091 50.7321 785.915 56.7115 777.437C54.4538 776.528 52.4683 775.682 50.2823 774.667C47.6166 773.427 42.5519 769.939 39.9131 769.471C40.9994 769.159 41.6235 769.12 42.3346 768.316C42.149 767.438 42.1529 767.298 42.4887 766.467C46.9905 772.311 58.5062 776.493 65.6449 774.472C77.1052 771.223 83.4637 758.847 70.6975 751.899C65.5006 749.071 59.0043 750.101 56.2746 755.773C55.6837 757.002 55.0326 758.051 55.4863 759.456C56.6159 760.322 56.3004 760.041 58.0931 760.018L59.135 760.392C59.5364 762.113 58.5792 761.582 59.4311 763.233L61.2203 763.943L61.1786 764.547C60.4382 764.668 59.873 764.762 59.1354 764.93C63.354 766.533 64.1377 762.257 65.7884 765.07C64.7509 766.467 63.8654 767.309 62.0137 767.438C53.9209 767.992 50.7095 760.217 54.1581 753.865C54.4885 753.257 55.1898 752.648 54.9355 752.098C51.2876 753.463 48.692 755.633 45.0792 756.748ZM65.2412 776.911C63.6688 776.232 61.5023 776.322 59.8504 776.661L60.0848 777.199C61.7684 777.106 63.5724 777.043 65.2412 776.911Z" fill="black" fill-opacity="0.898039"/>
<path d="M59.8506 776.661C61.5025 776.321 63.669 776.232 65.2414 776.91C63.5726 777.043 61.7686 777.106 60.085 777.199L59.8506 776.661Z" fill="black" fill-opacity="0.521569"/>
<path d="M20.5771 734.425C21.6539 735.537 21.5863 736.469 21.7381 737.928L22.0954 738.361C22.656 736.961 22.7206 735.95 22.9289 734.468C24.1936 735.763 23.3905 735.728 24.8863 737.144C20.4308 745.528 25.0554 754.041 32.9046 758.301C35.6749 759.807 37.9394 759.928 41.0374 760.205C41.3022 763.037 41.2843 763.865 42.4888 766.467C42.153 767.298 42.1491 767.438 42.3347 768.316C41.6236 769.12 40.9995 769.159 39.9132 769.471C39.7119 770.329 39.669 769.927 40.0446 770.723L39.6339 771.203C37.6823 771.133 37.0278 772.561 35.1265 773.454C31.2958 775.256 27.9848 776.037 23.9719 777.075C23.2485 778.315 22.7772 779.17 21.859 780.297C22.0267 778.608 22.8237 776.634 22.279 775.358C21.5635 775.03 21.6784 775.011 20.9255 774.89L20.2021 774.07C22.2669 769.83 24.1523 765.07 27.5 761.851L27.4792 761.196L28.3482 760.463L29.2573 760.24C29.1984 759.429 28.418 758.477 27.8045 757.958C25.4787 755.992 21.7496 748.778 19.4671 747.697C19.7905 747.654 19.5831 747.709 20.0222 747.37C18.1867 746.32 18.319 746.745 16.8042 746.18L16.4023 746.024C19.3789 742.395 19.8423 738.876 20.5771 734.425ZM25.7696 775.35C27.9424 774.987 36.2715 773.228 35.8599 770.516L34.69 769.795C31.9429 770.926 27.0364 772.861 24.9766 774.839L24.951 775.452L25.7696 775.35ZM23.4125 774.347L23.6153 773.973C25.2021 771.078 28.4204 767.672 28.7101 764.797L28.3872 764.114L27.0607 763.783C25.6093 766.276 22.5483 771.098 22.2434 773.801L22.5409 774.41C22.7196 774.402 23.274 774.402 23.4125 774.347Z" fill="black" fill-opacity="0.878431"/>
<path d="M10.2627 701.427C19.5396 700.401 25.1345 709.007 25.6142 717.325C25.9049 722.369 25.5027 727.433 25.2515 732.474C31.5143 729.002 36.0809 725.857 43.6781 728.073C54.8563 731.339 60.0938 743.004 47.995 749.421C41.4418 752.8 32.0355 750.381 32.177 741.673C33.7402 742.208 34.2375 742.348 34.7606 744.104C35.3294 746.016 38.4624 749.761 40.4885 747.685C42.8269 749.73 46.4776 747.65 48.5696 746.183C61.2792 737.284 40.7139 724.921 32.2891 731.397C29.7574 733.344 27.2916 735.053 24.8859 737.144C23.3901 735.728 24.1932 735.763 22.9284 734.468C22.7201 735.95 22.6556 736.96 22.0949 738.361L21.7377 737.928C21.5858 736.469 21.6535 735.536 20.5766 734.425C21.7502 723.321 28.0707 706.288 11.5387 702.016L10.2627 701.427Z" fill="black" fill-opacity="0.890196"/>
<path d="M-1.66004 737.815C0.6959 733.972 4.06083 731.577 8.72456 732.279C17.6888 733.625 19.463 742.903 9.10792 743.757C6.80962 743.948 5.97198 739.06 8.20908 737.78C9.62586 736.972 11.2609 736.071 12.8374 735.252C5.9806 733.707 -0.925898 733.992 1.43113 743.371C5.21064 747.592 11.6076 750.612 16.4022 746.024L16.8041 746.18C18.3189 746.745 18.1866 746.32 20.0221 747.37C19.583 747.709 19.7904 747.654 19.467 747.697C17.7474 748.08 15.9952 749.036 14.2242 749.449C7.31043 751.06 2.41621 749.449 -1.62362 743.808C-1.87475 741.346 -1.82486 740.304 -1.66004 737.815Z" fill="black" fill-opacity="0.901961"/>
<path d="M495.879 293.742C502.135 296.051 499.452 309.537 496.838 314.167C496.323 313.844 495.329 313.197 495.028 312.685C492.82 308.923 491.88 296.306 495.879 293.742Z" fill="black" fill-opacity="0.898039"/>
<path d="M495.988 491.089C500.103 492.903 499.947 501.396 499.35 504.947C498.828 508.06 498.469 508.809 496.714 511.403H496.082C491.686 507.923 492.735 495.529 495.988 491.089Z" fill="black" fill-opacity="0.886275"/>
<path d="M37.3307 66.2527C30.0615 63.803 30.7866 60.3218 36.242 55.9878C37.2816 56.4809 38.2458 56.9592 39.3255 57.3646C44.8326 61.5648 43.3725 64.0344 37.3307 66.2527Z" fill="black" fill-opacity="0.894118"/>
<path d="M32.1768 741.673C37.8682 737.472 45.3802 739.941 40.4883 747.685C38.4622 749.761 35.3292 746.016 34.7604 744.104C34.2373 742.348 33.74 742.208 32.1768 741.673Z" fill="black" fill-opacity="0.905882"/>
<path d="M49.8767 492.083C53.6768 496.625 53.4158 506.585 49.4488 511.025L49.0119 510.654C48.577 504.907 48.0009 499.34 49.4995 493.66C49.695 492.918 49.6825 493.27 49.4555 492.583L49.8767 492.083Z" fill="black" fill-opacity="0.905882"/>
<path d="M45.6094 48.7168C50.415 49.0004 60.7597 58.9317 63.438 62.9821C58.8882 62.2198 47.2836 52.9283 45.6094 48.7168Z" fill="black" fill-opacity="0.878431"/>
<path d="M50.1178 313.011L49.2788 313.927C45.4549 313.896 44.7715 297.095 48.2092 294.095C49.6099 293.933 49.0416 293.832 50.2676 294.499L50.2005 294.782C49.9747 295.701 49.771 295.979 49.5011 296.729C47.9373 301.073 48.313 308.899 50.1178 313.011Z" fill="black" fill-opacity="0.839216"/>
<path d="M482.257 741.708C485.463 742.532 499.104 752.593 499.736 756.093C495.664 756.147 484.098 745.368 482.257 741.708Z" fill="black" fill-opacity="0.870588"/>
<path d="M39.6156 19.6943C41.3983 19.2688 42.7194 20.206 44.1627 21.064C49.5496 24.2657 45.0462 30.0838 41.5512 32.6638L41.1584 32.5243C41.5305 31.2331 41.3206 31.6916 42.3181 30.6851C43.7902 28.9602 46.3713 26.0912 44.3234 24.0935C41.2902 21.1343 37.6126 24.3798 35.7529 26.2538C36.0162 22.3128 35.2479 20.3984 39.6156 19.6943Z" fill="black" fill-opacity="0.858824"/>
<path d="M49.4487 511.025C49.3079 511.337 49.2744 511.236 48.8137 511.462C44.9758 507.806 44.8724 492.813 49.2205 491.467L49.8766 492.084L49.4554 492.583C49.6824 493.27 49.6949 492.919 49.4994 493.66C48.0008 499.34 48.5769 504.907 49.0118 510.654L49.4487 511.025Z" fill="black" fill-opacity="0.835294"/>
<path d="M504.253 19.6011C505.743 19.7004 506.867 19.6467 508.166 20.4161C509.309 21.6776 510.081 24.2425 508.989 25.5901C508.638 25.3783 508.38 25.216 508.158 24.8507C506.535 22.1764 503.165 22.4809 500.949 24.1842C499.869 26.5141 500.801 28.3067 502.716 29.9C503.376 30.8122 504.366 31.9062 504.288 32.9188L503.668 32.7028C500.645 29.505 499.947 28.5582 498.309 24.4892C499.959 21.9642 501.733 21.1391 504.253 19.6011Z" fill="black" fill-opacity="0.839216"/>
<path d="M17.9434 756.526C16.2543 757.423 15.0215 757.926 14.2018 759.643C14.1189 762.963 16.0583 761.625 17.1131 763.654L16.7466 764.032C8.06003 763.864 10.2175 756.249 16.3028 755.27C18.8869 754.852 25.7148 759.081 28.3475 760.462L27.4785 761.196L27.4993 761.851C25.3467 759.428 20.9495 757.548 17.9434 756.526Z" fill="black" fill-opacity="0.85098"/>
<path d="M40.0442 770.723C43.4901 773.056 51.4733 782.193 42.8071 784.655C39.3932 785.622 36.6166 784.144 35.9053 780.262L36.1824 779.774C38.7363 780.071 39.502 783.235 42.6799 782.728C43.3489 781.596 43.6434 781.23 44.6771 780.418C45.8071 777.168 42.0035 773.216 39.6335 771.203L40.0442 770.723Z" fill="black" fill-opacity="0.835294"/>
<path d="M495.879 472.674C499.736 474.247 497.915 483.918 496.943 486.93L496.191 486.579C493.538 483.606 494.045 476.108 495.879 472.674ZM496.327 481.511C496.51 479.818 496.904 477.149 496.272 475.573C495.672 478.05 495.422 478.995 496.327 481.511Z" fill="black" fill-opacity="0.890196"/>
<path d="M496.272 475.573C496.904 477.149 496.51 479.817 496.327 481.511C495.422 478.994 495.671 478.05 496.272 475.573Z" fill="black" fill-opacity="0.529412"/>
<path d="M528.918 40.3736C533.813 39.8508 536.774 43.2844 533.228 47.3496C530.517 50.4555 523.999 49.1759 521.015 46.7422C520.102 46.1761 520.067 46.1578 519.318 45.3958L519.377 44.7884C521.596 44.9261 526.71 51.132 531.255 46.8756C531.922 43.7659 529.37 43.1756 528.918 40.3736Z" fill="black" fill-opacity="0.803922"/>
<path d="M470.325 729.13C470.645 729.189 471.098 729.283 471.398 729.423C475.794 731.51 480.966 730.578 485.323 732.571C486.334 733.032 486.404 733.796 486.669 734.709C481.918 735.583 472.845 733.496 470.325 729.13Z" fill="black" fill-opacity="0.894118"/>
<path d="M74.3297 728.92C74.7923 729.291 74.5832 729.092 74.7783 729.856C73.0764 733.172 63.0465 735.123 59.3513 734.862L58.7842 734.109C60.8531 729.923 69.4206 732.751 74.3297 728.92Z" fill="black" fill-opacity="0.898039"/>
<path d="M78.62 731.924C79.4087 732.084 79.3689 732.041 79.972 732.568C79.5374 732.743 77.7575 733.48 77.5999 733.781C75.4569 737.862 76.6844 741.564 73.3283 745.064L72.7069 745.2L72.2985 744.732C72.0317 738.353 72.4061 735.084 78.62 731.924Z" fill="black" fill-opacity="0.898039"/>
<path d="M47.458 474.906C48.1972 473.521 47.8243 473.728 48.9988 473.119C51.6454 474.703 51.6918 484.702 49.2282 486.727L48.3634 486.762C47.5653 485.822 47.4151 484.819 47.4822 483.579C49.1689 481.456 48.441 477.251 47.458 474.906ZM49.0483 485.206C49.2239 482.627 49.743 477.723 48.7371 475.522C48.7027 477.411 48.3751 483.805 49.0483 485.206Z" fill="black" fill-opacity="0.854902"/>
<path d="M48.7377 475.522C49.7437 477.723 49.2245 482.627 49.0489 485.206C48.3757 483.805 48.7033 477.411 48.7377 475.522Z" fill="black" fill-opacity="0.462745"/>
<path d="M471.519 59.6201L472.381 60.1222C475.22 65.9637 471.69 70.1214 466.787 72.8434L466.12 72.6526L466.171 72.1466L468.968 70.1327C469.482 65.6622 469.33 63.5133 471.519 59.6201ZM470.895 69.141C471.269 67.3702 472.123 64.6478 471.292 63.1442C470.895 65.2104 470.309 67.1244 470.895 69.141Z" fill="black" fill-opacity="0.898039"/>
<path d="M471.293 63.144C472.124 64.6476 471.269 67.37 470.895 69.1408C470.31 67.1242 470.895 65.2102 471.293 63.144Z" fill="black" fill-opacity="0.580392"/>
<path d="M61.1413 70.4472C65.2008 70.4039 72.9109 71.0808 74.7119 75.4843L74.4868 76.0137L73.9091 75.5759C70.0751 72.5481 61.336 74.0716 58.8828 71.5989C59.4285 70.7055 59.8989 70.8237 61.1413 70.4472Z" fill="black" fill-opacity="0.901961"/>
<path d="M48.3674 318.198C52.4128 319.27 50.7093 328.604 49.229 331.322C46.6772 329.638 46.8827 321 48.3674 318.198ZM48.7438 328.018C49.5017 326.42 49.7037 321.67 48.6794 320.198C48.5678 322.145 48.3049 326.197 48.7438 328.018Z" fill="black" fill-opacity="0.87451"/>
<path d="M48.6794 320.198C49.7038 321.669 49.5017 326.419 48.7438 328.017C48.305 326.197 48.5679 322.145 48.6794 320.198Z" fill="black" fill-opacity="0.607843"/>
<path d="M11.338 47.7889C11.1724 46.0029 10.9348 43.7986 11.1939 42.0359C11.3908 40.6966 14.5924 40.1649 15.7057 40.5956C16.3422 43.1174 12.9757 45.0985 15.544 47.7444C16.9783 48.4342 18.5557 48.1993 20.1576 48.1201L21.0045 48.3733C17.471 49.7825 14.7548 48.8946 11.338 47.7889Z" fill="black" fill-opacity="0.882353"/>
<path d="M58.0928 760.018C61.2964 757.123 67.3999 759.842 65.7881 765.07C64.1373 762.257 63.3537 766.533 59.135 764.93C59.8727 764.762 60.4379 764.668 61.1782 764.547L61.22 763.943L59.4307 763.232C58.5788 761.582 59.536 762.113 59.1347 760.392L58.0928 760.018Z" fill="black" fill-opacity="0.894118"/>
<path d="M495.785 318.172C499.518 320.013 497.727 328.313 496.764 331.494C493.795 329.197 494.17 321.504 495.785 318.172Z" fill="black" fill-opacity="0.847059"/>
<path d="M466.771 732.7C473.485 733.352 473.176 740.109 472.923 745.083C469.139 744.221 469.674 737.643 468.718 734.784C468.558 734.304 467.204 733.09 466.771 732.7Z" fill="black" fill-opacity="0.886275"/>
<path d="M479.324 70.8546C479.995 70.8125 480.666 70.7781 481.333 70.7508C482.378 70.7106 484.96 70.6724 485.729 71.3782C484.664 72.6211 477.756 73.6604 475.536 74.1821C473.5 74.4673 473.426 75.3002 471.331 76.0504L470.836 75.766C471.483 72.3976 476.48 71.2147 479.324 70.8546Z" fill="black" fill-opacity="0.917647"/>
<path d="M73.3746 59.6318C75.5703 60.8908 77.1485 70.1991 76.4327 72.6117C72.5484 68.1364 71.4422 65.7242 73.3746 59.6318Z" fill="black" fill-opacity="0.878431"/>
<path d="M333.3 47.4317C333.371 45.3214 333.199 43.4097 334.662 41.8223C336.303 42.0134 334.749 46.049 336.143 47.4363L336.235 46.6646C337.667 48.6001 338.385 48.1643 340.736 48.1909C338.608 48.9754 336.922 47.6177 335.578 48.6758C335.637 49.1756 335.694 49.8384 335.786 50.3171C335.041 51.864 334.698 52.0302 333.073 52.0712C332.002 51.5203 332.059 51.5534 331.449 50.502C332.053 49.8528 332.089 49.396 332.317 48.5424C333.205 48.1967 332.831 48.4932 333.3 47.4317Z" fill="black" fill-opacity="0.741176"/>
<path d="M50.2671 294.5L51.6265 297.291C50.5675 298.002 50.4017 297.827 50.2063 299.204C49.8357 301.811 49.6364 307.429 50.6872 309.743L51.6921 310.394C51.2037 311.344 50.8308 312.22 50.1174 313.011C48.3125 308.899 47.9369 301.073 49.5007 296.729C49.7706 295.979 49.9742 295.701 50.2001 294.782L50.2671 294.5Z" fill="black" fill-opacity="0.968627"/>
<path d="M51.6919 310.395L50.6871 309.743C49.6362 307.429 49.8356 301.811 50.2061 299.204C50.4016 297.827 50.5673 298.002 51.6264 297.291C52.7993 300.171 52.6959 307.434 51.6919 310.395Z" fill="black" fill-opacity="0.866667"/>
<path d="M61.929 17.5137C65.5953 19.6227 66.1602 16.8682 67.1915 18.7154L67.0164 19.279L65.4791 19.6469L65.4323 19.8344L65.8278 19.8418C67.0577 19.8754 67.3612 19.782 68.3442 20.3974L68.3976 21.0682C66.5366 22.065 64.078 21.1332 62.5165 19.9433L61.736 19.8897C61.3826 20.4914 61.1314 20.9457 60.7187 21.5161C60.3142 19.4655 60.4171 18.9768 61.929 17.5137Z" fill="black" fill-opacity="0.968627"/>
<path d="M496.003 461.044C498.55 463.041 497.727 467.645 496.756 470.31C494.232 467.512 495.153 464.239 496.003 461.044Z" fill="black" fill-opacity="0.905882"/>
<path d="M495.875 335.721C498.855 336.682 497.439 341.886 496.994 344.145C494.022 342.844 495.231 338.087 495.875 335.721Z" fill="black" fill-opacity="0.909804"/>
<path d="M14.9331 69.0142C14.0721 67.4915 15.8331 66.9219 14.2304 66.4807C12.7044 66.0601 10.0217 65.2154 9.20117 63.8281C10.6084 62.7697 13.8491 64.2132 15.3891 64.5936C15.963 66.1428 15.9836 66.8618 15.2465 68.404C15.1468 68.61 15.0423 68.8133 14.9331 69.0142Z" fill="black" fill-opacity="0.980392"/>
<path d="M510.241 173.228C510.19 174.753 510.334 175.982 509.527 177.216L509.082 176.966C508.384 175.333 507.003 170.591 508.131 169.167C509.348 170.045 508.993 169.855 509.687 171.447L510.241 173.228Z" fill="black" fill-opacity="0.945098"/>
<path d="M48.668 461.044C51.0002 462.421 49.9026 467.45 49.3374 469.584L48.8759 469.124C48.3037 466.502 48.4113 463.701 48.668 461.044Z" fill="black" fill-opacity="0.862745"/>
<path d="M21.9585 27.2076C20.27 23.7729 24.8703 20.3959 27.9427 22.4521C27.1026 23.8693 24.1039 22.2304 22.3271 25.476L22.6922 26.3644L21.9585 27.2076Z" fill="black" fill-opacity="0.678431"/>
<path d="M509.688 171.447L510.464 171.34L510.643 171.673C511.119 172.533 511.248 172.989 512.102 173.453C512.309 175.379 512.437 176.321 511.49 178.143L510.651 177.487C510.487 176.071 510.351 174.651 510.241 173.228L509.688 171.447Z" fill="black" fill-opacity="0.878431"/>
<path d="M48.9256 336.125C49.6741 336.396 49.6156 336.394 50.1063 337.032C50.6903 339.711 50.3095 341.066 49.3625 343.6L48.8047 343.44C48.5371 341.292 48.8031 338.348 48.9256 336.125Z" fill="black" fill-opacity="0.894118"/>
<path d="M498.301 136.355L498.917 137.849C497.926 139.296 498.254 142.035 498.316 143.914L498.574 144.149L497.755 145.265C497.68 141.764 496.069 139.255 498.301 136.355Z" fill="black" fill-opacity="0.709804"/>
<path d="M53.8939 15.7957L54.1638 15.1611C56.3302 16.9826 55.9429 21.6557 54.179 23.6433L53.835 23.1605C54.3713 21.748 54.7263 17.0377 53.8939 15.7957Z" fill="black" fill-opacity="0.756863"/>
<path d="M507.62 676.357L506.465 675.935C505.381 673.778 506.843 673.107 507.187 670.762C508.396 673.376 508.54 673.575 507.62 676.357Z" fill="black" fill-opacity="0.843137"/>
<path d="M47.4587 474.906C48.4416 477.25 49.1695 481.456 47.4828 483.578C47.0354 480.894 47.1876 477.606 47.4587 474.906Z" fill="black" fill-opacity="0.976471"/>
<path d="M44.2373 202.936L44.682 200.98C45.7282 201.015 46.3753 202.032 47.3645 202.549C46.6745 203.636 46.1155 204.336 45.8257 205.593C45.3564 204.606 44.8275 203.843 44.2373 202.936Z" fill="black" fill-opacity="0.878431"/>
<path d="M19.6733 30.0848C17.1946 29.985 16.363 30.4503 14.0235 31.39L13.7246 31.1563L14.3786 30.1203C16.5309 28.7489 19.7484 29.3225 22.3391 29.5173C21.5825 29.6159 20.0954 29.6602 19.6733 30.0848Z" fill="black" fill-opacity="0.713725"/>
<path d="M53.8935 15.7954C54.7259 17.0374 54.3709 21.7478 53.8346 23.1603C52.7673 20.8068 52.9811 18.147 53.8935 15.7954Z" fill="black" fill-opacity="0.960784"/>
<path d="M20.9252 774.89C19.7305 776.068 18.7998 776.622 17.0965 776.524C16.2297 776.115 15.8106 776.033 15.3496 775.202C17.6275 774.71 17.9428 775.927 20.2018 774.07L20.9252 774.89Z" fill="black" fill-opacity="0.796078"/>
<path d="M20.1572 48.1202L20.5261 47.9391C22.5979 46.9119 24.1382 45.3888 25.9042 44.875L26.334 45.058C24.6764 46.8198 23.3056 47.7019 21.0041 48.3734L20.1572 48.1202Z" fill="black" fill-opacity="0.760784"/>
<path d="M6.38098 704.446C7.9837 702.804 8.2603 702.515 10.2629 701.427L11.5388 702.016C8.54462 703.331 7.78285 704.15 5.6377 706.647C6.0839 705.792 6.15251 705.359 6.38098 704.446Z" fill="black" fill-opacity="0.529412"/>
<path d="M502.217 677.192C502.818 675.931 503.559 673.579 504.304 673.001L503.855 673.47L504.518 673.719C504.28 675.986 504.206 676.337 503.219 678.483L502.217 677.192Z" fill="black" fill-opacity="0.713725"/>
<path d="M332.317 48.5424C332.245 47.1032 331.989 44.0987 332.787 42.9307C333.437 44.2813 333.283 45.8781 333.3 47.4317C332.831 48.4932 333.205 48.1967 332.317 48.5424Z" fill="black" fill-opacity="0.105882"/>
<path d="M507.253 308.01C507.635 309.57 508.201 311.108 507.881 312.624L507.506 312.667C506.913 311.587 506.488 309.785 506.406 308.565C506.558 308.536 507.097 308.119 507.253 308.01Z" fill="black" fill-opacity="0.611765"/>
<path d="M94.0342 56.974C93.293 54.1716 93.9164 52.7074 94.757 49.9102C95.0082 52.1733 94.3283 53.7635 94.5268 56.0076L94.0342 56.974Z" fill="black" fill-opacity="0.568627"/>
<path d="M59.9423 253.899C59.0296 251.398 59.4762 247.175 59.6217 244.408C60.0266 246.8 59.8986 250.399 60.0305 253.04L59.9423 253.899Z" fill="black" fill-opacity="0.988235"/>
<path d="M497.747 116.67L498.473 117.704C498.106 119.056 498.461 120.502 497.782 122.266C497.591 120.466 497.708 118.501 497.747 116.67Z" fill="black" fill-opacity="0.541176"/>
<path d="M6.38104 704.447C6.15258 705.36 6.08397 705.793 5.63776 706.647C5.0855 707.513 5.01962 707.782 4.05212 708.145L3.95312 707.669C4.6244 706.089 5.19936 705.633 6.38104 704.447Z" fill="black" fill-opacity="0.647059"/>
<path d="M497.619 550.702L498.27 550.94C498.348 552.048 498.559 553.932 497.872 554.736C497.279 553.28 497.498 552.278 497.619 550.702Z" fill="black" fill-opacity="0.6"/>
<path d="M516.786 733.777C517.785 733.711 518.214 733.59 519.15 733.231C520.808 734.249 522.161 736.391 523.203 736.571L523.546 734.456L523.936 734.241C524.47 735.228 524.494 735.381 524.759 736.485C524.977 736.176 525.13 735.377 525.219 734.963C525.672 737.885 525.902 740.386 527.053 743.121C526.725 745.555 526.803 745.329 524.502 746.484L524.435 747.974C522.781 753.202 516.809 758.114 516.642 760.15C517.59 760.568 517.48 760.369 518.748 760.084L519.002 760.502C518.53 761.141 518.245 761.442 517.976 762.206C517.656 762.835 517.5 763.076 516.965 763.541L517.656 763.552C515.144 766.556 520.698 770.684 521.291 773.161C519.372 775.054 512.979 769.486 509.223 770.107L508.583 769.678C506.746 770.313 508.427 770.493 506.157 771.285L505.919 771.507L505.466 770.704L504.904 769.759C504.549 769.798 490.659 776.634 489.22 777.324C491.217 780.773 491.603 781.741 493.003 785.455C491.607 789.516 491.244 790.382 488.28 793.433C487.515 792.344 487.41 792.157 486.24 791.545C492.091 786.769 490.179 778.935 484.188 778.354C473.87 777.352 461.595 774.816 451.336 774.948C444.814 775.034 434.329 777.539 434.711 785.517L434.165 786.66C431.946 783.106 433.841 780.929 436.502 778.479C445.473 770.212 459.687 773.013 470.851 773.415C473.168 773.403 473.426 773.622 475.364 772.198C482.67 776.462 489.781 775.596 497.045 771.347C502.244 768.308 503.387 765.722 504.776 760.15C505.49 760.096 506.196 760.029 506.905 759.951C518.058 758.687 523.214 749.628 521.974 739.06C520.09 736.91 518.9 735.697 516.786 733.777ZM488.806 776.723C486.68 776.337 482.569 776.446 480.4 776.661C482.963 777.024 486.626 777.894 488.806 776.723Z" fill="black" fill-opacity="0.886275"/>
<path d="M480.4 776.661C482.569 776.446 486.681 776.337 488.806 776.723C486.626 777.894 482.963 777.024 480.4 776.661Z" fill="black" fill-opacity="0.494118"/>
<path d="M471.483 13.61C477.022 9.19391 483.525 6.88329 489.645 12.8619C495.543 18.6246 490.008 23.1395 489.855 28.1649L490.382 28.6757C496.81 30.1254 499.393 32.7811 504.561 36.0712L505.033 37.285L505.708 37.3852L505.84 37.9022C504.897 38.3247 503.871 38.8147 502.899 39.1533C497.22 32.263 492.223 31.1986 483.848 29.1732C481.282 30.2399 478.563 30.7972 476.16 31.9318C472.993 33.4243 469.642 36.706 468.312 39.9461C464.524 49.1646 477.201 56.8215 485.034 53.3336C485.994 52.8978 487 52.2393 487.87 51.6806C489.333 52.5717 490.089 52.5307 490.011 54.3987L489.512 54.2914C487.886 54.7046 486.243 55.1599 484.597 55.5707C474.803 58.0153 463.37 50.875 465.979 39.8763C466.857 36.1645 468.928 35.0353 470.247 31.8474C469.603 31.4128 459.406 32.5336 457.628 32.5837C449.085 32.824 444.299 32.0571 437.145 27.4324C425.747 20.0633 441.779 12.063 443.398 15.2343C428.544 18.746 434.957 26.982 443.835 28.7094C452.03 30.3044 480.997 29.2265 487.172 25.3002L487.609 25.0187C489.746 20.733 491.451 16.2076 486.333 12.8853C484.27 11.5614 481.773 11.0856 479.37 11.5573C476.445 12.1486 472.618 14.9586 473.281 18.3041C474.346 19.5765 473.878 19.4002 475.224 19.6983C477.17 19.0025 477.553 17.4913 479.558 16.0621C481.773 15.7062 483.782 17.0569 484.703 19.0489C485.393 23.8821 480.084 24.1054 476.808 23.3186C474.225 22.6986 473.535 22.2109 471.296 20.6981C470.82 17.4639 470.816 16.7931 471.483 13.61Z" fill="black" fill-opacity="0.894118"/>
<path d="M526.004 57.1718C534.391 54.9566 542.516 53.2256 547.201 62.2447V66.8253C546.44 68.261 546.003 69.1322 544.747 70.2519C540.21 74.307 528.984 73.4062 529.971 65.3853C530.545 60.7158 533.454 60.9752 537.324 61.5484C538.564 61.7325 538.802 62.0075 539.368 62.961C539.15 65.2769 535.054 67.2662 533.981 69.7705C534.952 71.4251 539.263 71.2081 540.721 70.3487C547.099 66.5889 546.062 59.8899 538.83 57.9638C534.441 56.7941 531.925 57.5237 528.044 59.6605C524.99 69.2056 521.99 81.647 522.302 91.6841C524.713 94.9355 525.801 100.215 530.755 101.61C534.995 102.803 538.502 100.308 542.059 98.4428L541.58 98.941C539.937 100.624 538.272 102.423 535.853 102.794C516.97 105.69 520.165 84.2165 520.282 73.5849C519.389 73.8607 518.386 74.2005 517.524 74.55C506.668 78.9484 494.896 78.2267 490.398 65.9128C491.073 63.4413 491.783 60.9803 492.536 58.5306C492.84 59.33 493.457 61.2581 493.995 61.791C486.619 74.6172 521.198 84.3643 522.24 59.9234C522.373 58.6933 522.33 57.441 523.04 56.5889L524.756 57.535L526.004 57.1718Z" fill="black" fill-opacity="0.890196"/>
<path d="M520.118 732.751C520.843 722.732 517.332 711.426 526.086 704.142C532.362 698.914 537.031 701.583 541.587 706.823L541.127 706.573C538.935 705.383 534.277 701.052 532.221 702.117C520.769 708.048 520.948 717.961 523.987 729.084C524.467 730.835 524.525 732.704 525.036 734.405C525.095 734.592 525.157 734.78 525.22 734.963C525.13 735.377 524.978 736.176 524.759 736.485C524.494 735.38 524.471 735.228 523.936 734.241L523.546 734.456L523.203 736.57C522.162 736.391 520.808 734.249 519.15 733.231C518.214 733.59 517.785 733.711 516.786 733.777C512.043 730.664 509.551 728.651 503.914 729.856C493.803 732.018 487.492 742.91 500.006 747.865C501.48 748.446 501.995 748.786 503.696 748.633C504.76 747.947 504.46 748.407 504.753 747.303C504.047 745.684 503.103 743.979 503.134 742.255C503.497 741.424 503.668 740.753 504.663 740.405C516.232 736.414 515.171 749.102 505.88 750.494C501.804 751.107 498.781 750.803 495.594 748.325C482.292 737.991 497.692 725.873 509.59 727.905C515.601 728.932 515.515 729.938 520.118 732.751ZM522.072 732.954C522.36 730.937 522.852 726.532 521.643 724.792C521.662 726.361 521.545 731.873 522.072 732.954Z" fill="black" fill-opacity="0.898039"/>
<path d="M521.643 724.792C522.852 726.532 522.36 730.937 522.072 732.954C521.545 731.873 521.662 726.36 521.643 724.792Z" fill="black" fill-opacity="0.505882"/>
<path d="M509.765 34.4686C511.762 34.4808 516.458 33.0172 518.155 31.8657C519.856 32.8935 519.177 32.7837 520.858 32.6691C519.598 34.8968 517.449 38.5755 517 41.0193C517.82 41.3139 518.389 41.4426 519.041 42.0208C517.757 43.1647 516.376 44.4455 515.066 45.5359C521.95 49.8575 521.303 53.49 526.003 57.1717L524.755 57.535L523.039 56.5889C522.329 57.4409 522.372 58.6933 522.239 59.9234C521.049 53.2232 516.954 48.0141 510.381 45.9276C508.47 45.3202 506.465 45.4076 504.651 44.4935C503.875 42.7137 503.434 41.0154 502.899 39.1533C503.871 38.8146 504.897 38.3246 505.841 37.9021L505.708 37.3852L505.033 37.2849L504.561 36.0712C505.205 35.3559 507.604 33.601 508.497 32.914C509.339 33.5091 509.433 33.4718 509.765 34.4686Z" fill="black" fill-opacity="0.87451"/>
<path d="M491.05 55.2083C490.414 55.5418 490.597 55.442 490.071 55.9558L490.523 56.1426C491.026 55.8419 491.534 55.5442 492.037 55.2488C493.145 54.5895 493.39 54.261 494.635 54.2485C494.978 54.8189 494.966 54.9816 495.161 55.6444L495.345 55.0889L495.949 55.6745C497.611 55.6347 498.964 55.1287 500.572 54.8166C504.87 53.9828 513.3 55.561 513.296 61.2706C513.284 62.4843 512.75 63.6344 511.833 64.428C510.171 65.8855 507.959 66.0248 505.9 65.4115C499.85 63.6103 505.369 58.9415 504.987 56.3966C500.15 54.6695 496.663 58.3937 493.995 61.791C493.457 61.2581 492.84 59.3301 492.536 58.5307C492.696 58.2677 492.7 57.9927 492.762 57.6521C491.413 57.7325 490.523 58.606 489.232 59.4276C488.355 58.3262 488.214 58.2034 487.005 57.4781C488.202 56.4555 488.655 55.5968 489.513 54.2915L490.012 54.3987C490.566 55.03 490.309 54.8595 491.05 55.2083Z" fill="black" fill-opacity="0.890196"/>
<path d="M470.852 773.415C464.494 766.533 462.352 755.918 471.999 750.803C475.942 748.7 480.573 748.298 484.82 749.683C489.852 751.295 494.401 755.469 492.56 761.184C490.886 760.334 491.202 759.32 490.89 757.533C490.906 758.418 490.558 759.363 490.512 760.537C490.282 757.189 489.724 755.165 486.954 752.789C484.863 751.025 482.152 750.183 479.434 750.448C468.445 751.571 461.635 764.789 475.365 772.198C473.427 773.622 473.169 773.404 470.852 773.415Z" fill="black" fill-opacity="0.905882"/>
<path d="M488.28 793.433C479.086 798.914 465.546 792.189 472.314 783.703C473.601 782.088 475.52 781.105 477.584 781.003C481.481 780.8 483.478 782.821 486.158 785.228C480.825 789.789 477.908 789.887 475.333 783.063C472.759 787.062 472.213 787.87 474.927 791.947C478.516 793.605 482.982 794.432 486.239 791.545C487.41 792.157 487.515 792.345 488.28 793.433ZM483.119 785.451C482.019 783.578 480.31 783.567 478.255 783.145C478.653 785.065 478.29 784.557 479.433 785.704C480.821 786.036 481.711 785.728 483.119 785.451Z" fill="black" fill-opacity="0.913725"/>
<path d="M478.255 783.145C480.311 783.566 482.019 783.578 483.119 785.451C481.711 785.728 480.822 786.036 479.433 785.704C478.29 784.557 478.653 785.064 478.255 783.145Z" fill="black" fill-opacity="0.980392"/>
<path d="M490.511 760.537C490.558 759.362 490.905 758.418 490.89 757.533C491.202 759.32 490.886 760.334 492.559 761.184C491.448 763.428 490.461 764.606 488.304 766.163C484.914 768.605 478.248 767.243 479.476 762.086C479.913 760.24 482.382 759.339 484.056 758.602C486.345 759.382 488.167 759.936 490.511 760.537Z" fill="black" fill-opacity="0.898039"/>
<path d="M480.814 39.1038C485.109 37.5449 490.266 37.5008 491.834 42.7341C492.938 46.4123 491.947 49.0008 491.627 52.5721L491.05 55.2083C490.309 54.8595 490.566 55.03 490.012 54.3988C490.09 52.5308 489.334 52.5717 487.871 51.6807C489.349 49.8431 491.03 47.8807 490.157 45.4564C488.905 44.6972 489.228 44.9528 487.438 45.0956C485.647 43.7593 484.801 44.1651 482.215 43.6813C481.493 42.7317 481.669 43.2451 481.587 42.1176C482.796 42.0509 482.827 42.0271 483.838 41.3042C483.252 40.5512 483.424 41.708 481.762 40.8493L481.727 39.6036L480.814 39.1038Z" fill="black" fill-opacity="0.905882"/>
<path d="M519.825 28.5715C520.89 27.4658 521.428 27.0419 522.095 25.6387C521.713 22.8553 519.458 24.0385 517.828 22.5462C518.588 21.719 518.67 21.515 519.7 21.2124C523.476 22.1787 524.026 26.1568 523.706 29.4418C526.468 29.3379 529.194 28.9506 531.468 30.6468C532.393 32.4052 531.886 32.9368 530.833 34.6042L530.31 34.5719C530.076 33.2916 530.189 32.9437 530.361 31.6247C529.194 29.098 526.92 30.2193 524.783 31.0008C523.644 34.0016 521.678 40.151 519.041 42.0209C518.389 41.4427 517.82 41.314 517.001 41.0194C521.42 39.5166 522.61 33.1348 523.768 29.138C522.817 30.3294 521.845 31.5066 520.858 32.6692C519.177 32.7838 519.856 32.8936 518.155 31.8658C519.454 31.2324 519.996 31.2555 520.578 30.1639C518.198 28.9648 512.195 31.6355 510.217 33.288L509.765 34.4687C509.433 33.4719 509.34 33.5092 508.497 32.9141C512.031 30.4638 515.655 29.3458 519.825 28.5715Z" fill="black" fill-opacity="0.866667"/>
<path d="M517.976 762.207C519.373 763.303 519.974 763.72 521.031 765.164C523.254 768.191 523.851 774.664 527.935 775.424C529.756 775.058 530.08 774.445 531.11 772.9C531.239 772.705 531.367 772.506 531.496 772.307L531.898 772.272C531.73 776.357 528.38 776.743 525.345 775.908C523.675 775.452 523.34 775.729 522.22 777.036C517.844 776.786 514.15 775.034 510.253 773.169C508.981 772.561 507.444 771.515 506.157 771.285C508.427 770.493 506.746 770.314 508.583 769.678L509.223 770.107C510.405 773.033 518.991 776.216 521.951 775.342C524.284 772.647 520.013 765.394 517.657 763.552L516.966 763.541C517.5 763.077 517.656 762.835 517.976 762.207Z" fill="black" fill-opacity="0.87451"/>
<path d="M538.666 741.709C537.472 745.872 531.141 743.308 529.842 739.98C529.433 738.951 529.472 737.8 529.955 736.805C530.942 734.706 533.181 733.738 535.182 732.95L536.899 733.352C536.992 733.649 537.144 734.086 537.183 734.374L532.947 735.361C535.553 736.781 537.663 737.558 539.107 740.183C538.12 739.863 533.513 738.693 532.631 738.806L532.148 739.387C532.932 742.606 536.813 740.542 538.666 741.709Z" fill="black" fill-opacity="0.905882"/>
<path d="M527.053 743.121C527.474 744.654 529.456 746.847 530.86 747.498C536.067 749.913 539.933 747.553 543.479 744.19L543.947 744.572L545.074 743.761C546.053 744.225 545.733 744.042 546.237 745.423C542.281 750.089 535.939 750.924 530.415 749.106C528.254 748.392 526.721 747.924 524.436 747.974L524.502 746.484C526.803 745.329 526.725 745.556 527.053 743.121Z" fill="black" fill-opacity="0.913725"/>
<path d="M535.182 732.95C540.764 730.843 545.086 733.445 547.2 738.747V743.476L546.236 745.423C545.733 744.041 546.053 744.225 545.074 743.761L543.947 744.572L543.478 744.19C547.43 737.319 543.268 735.31 537.183 734.374C537.144 734.085 536.992 733.648 536.898 733.352L535.182 732.95Z" fill="black" fill-opacity="0.901961"/>
<path d="M523.023 757.404C526.164 755.578 527.845 755.016 531.507 755.964C534.027 756.62 535.373 758.797 534.492 761.254C533.906 762.885 530.645 764.251 529.023 764.145L528.562 763.646C529.686 762.394 531.164 761.106 531.523 759.557C530.505 756.358 526.862 756.787 524.322 757.611L523.503 757.876L523.023 757.404Z" fill="black" fill-opacity="0.87451"/>
<path d="M502.74 772.994L503.236 773.856C501.64 776.08 499.663 778.502 501.004 781.374C503.376 783.637 506.941 781.545 508.919 779.739L509.254 779.431L509.695 779.805C507.678 790.905 493.125 782.778 502.74 772.994Z" fill="black" fill-opacity="0.866667"/>
<path d="M491.627 52.5723C494.182 51.5685 495.956 49.5483 498.781 49.6837C499.362 51.3621 496.518 53.8121 495.344 55.0891L495.161 55.6446C494.966 54.9818 494.977 54.8191 494.634 54.2487C493.39 54.2612 493.144 54.5897 492.036 55.249C491.533 55.5444 491.026 55.842 490.523 56.1428L490.07 55.956C490.597 55.4421 490.414 55.542 491.049 55.2084L491.627 52.5723Z" fill="black" fill-opacity="0.894118"/>
<path d="M480.814 39.104L481.727 39.6038L481.762 40.8495C483.424 41.7082 483.252 40.5514 483.837 41.3044C482.827 42.0273 482.796 42.0511 481.586 42.1178C481.668 43.2453 481.493 42.7319 482.214 43.6815C484.801 44.1652 485.647 43.7595 487.438 45.0957C486.704 45.922 485.405 46.2517 484.348 46.318C482.87 46.4163 481.415 45.9138 480.315 44.9245C478.052 42.9032 479.039 40.9057 480.814 39.104Z" fill="black" fill-opacity="0.866667"/>
<path d="M520.859 32.6693C521.846 31.5068 522.817 30.3296 523.769 29.1382C522.61 33.135 521.42 39.5168 517.001 41.0196C517.45 38.5758 519.599 34.8971 520.859 32.6693Z" fill="black" fill-opacity="0.01"/>
<path d="M487.005 57.478C488.214 58.2033 488.354 58.3262 489.232 59.4275C487.785 60.0584 484.411 62.3036 482.059 63.3956C483.724 61.2031 485.191 59.5184 487.005 57.478Z" fill="black" fill-opacity="0.866667"/>
<path d="M538.666 741.709C536.813 740.542 532.932 742.606 532.147 739.387L532.631 738.806C533.513 738.693 538.119 739.863 539.106 740.183L538.666 741.709Z" fill="black" fill-opacity="0.984314"/>
<path d="M434.711 785.517C436.849 787.85 440.582 788.806 441.998 790.628C438.105 789.891 437.348 788.576 434.165 786.66L434.711 785.517Z" fill="black" fill-opacity="0.717647"/>
<path d="M518.748 760.084C519.438 758.98 521.779 758.024 523.023 757.404L523.503 757.876C521.662 759.237 521.124 759.69 519.002 760.502L518.748 760.084Z" fill="black" fill-opacity="0.643137"/>
<path d="M505.467 770.704L505.919 771.507C505.166 772.128 503.836 773.161 503.236 773.856L502.74 772.994C503.302 772.362 504.749 771.277 505.467 770.704Z" fill="black" fill-opacity="0.682353"/>
</g>
<defs>
<clipPath id="clip0_637_2">
<rect width="550" height="799" fill="white" transform="translate(-2.7998 -3)"/>
</clipPath>
</defs>
</svg>
